<?xml version="1.0" encoding="UTF-8" standalone="no"?>
<svg
   width="12.999771"
   height="12.846"
   version="1.1"
   id="svg35"
   sodipodi:docname="cw_logo_13.svg"
   inkscape:version="1.2.2 (732a01da63, 2022-12-09)"
   xmlns:inkscape="http://www.inkscape.org/namespaces/inkscape"
   xmlns:sodipodi="http://sodipodi.sourceforge.net/DTD/sodipodi-0.dtd"
   xmlns="http://www.w3.org/2000/svg"
   xmlns:svg="http://www.w3.org/2000/svg">
  <defs
     id="defs39" />
  <sodipodi:namedview
     id="namedview37"
     pagecolor="#ffffff"
     bordercolor="#000000"
     borderopacity="0.25"
     inkscape:showpageshadow="2"
     inkscape:pageopacity="0.0"
     inkscape:pagecheckerboard="0"
     inkscape:deskcolor="#d1d1d1"
     showgrid="false"
     inkscape:zoom="43.174514"
     inkscape:cx="10.457558"
     inkscape:cy="5.3503787"
     inkscape:window-width="2304"
     inkscape:window-height="1202"
     inkscape:window-x="-11"
     inkscape:window-y="1285"
     inkscape:window-maximized="1"
     inkscape:current-layer="svg35" />
  <path
     fill="#b1361e"
     d="m 6.3066602,10.942062 a 0.42489524,0.42489524 0 0 1 0.2468412,-0.07288 0.42489524,0.42489524 0 0 1 0.3581275,0.212448 0.48761787,0.48761787 0 0 1 0.3601505,-0.145678 0.48559456,0.48559456 0 0 1 0.3176575,0.127471 0.53820064,0.53820064 0 0 1 0.5321294,-0.39859 0.53617733,0.53617733 0 0 1 0.1962641,0.04249 v 0.01211 c 0.00812,-0.317657 0.2630341,-0.570568 0.5746221,-0.580683 a 0.71827529,0.71827529 0 0 1 -0.06679,-0.398597 c 0.03039,-0.248865 0.184117,-0.453221 0.39252,-0.560453 l 0.0016,0.0016 C 9.1125795,9.070038 9.0478325,8.91829 9.0518785,8.750357 A 0.59889996,0.59889996 0 0 1 9.1773265,8.3962759 0.55236381,0.55236381 0 0 1 8.9325005,7.7184678 0.49571111,0.49571111 0 0 1 8.4873717,7.2126386 0.49975774,0.49975774 0 0 1 8.4930591,7.1357774 0.40061551,0.40061551 0 0 1 8.4080813,7.1439023 0.40061551,0.40061551 0 0 1 8.0297229,6.8343371 0.35812599,0.35812599 0 0 1 7.8213204,6.8950298 C 7.6554108,6.8893424 7.5178244,6.7736282 7.4814088,6.6178341 a 0.2266108,0.2266108 0 0 1 -0.1173554,0.028356 0.2266108,0.2266108 0 0 1 -0.097116,-0.024293 v -0.00406 a 0.73648508,0.73648508 0 0 1 -0.1962645,0.3237238 0.2266108,0.2266108 0 0 1 0.1052169,0.1011707 0.22863411,0.22863411 0 0 1 -0.00406,0.2144718 0.3601493,0.3601493 0 0 1 0.1780481,0.6029457 0.3985922,0.3985922 0 0 1 0.194241,0.1820943 c 0.1011626,0.196264 0.022262,0.437036 -0.1740101,0.5382066 a 0.49571111,0.49571111 0 0 1 0.10724,0.141625 C 7.6027861,8.966901 7.5077334,9.268374 7.2628746,9.389767 A 0.49773442,0.49773442 0 0 1 7.141473,9.434287 v 0.0016 a 0.55236381,0.55236381 0 0 1 -0.238749,0.744578 0.54831719,0.54831719 0 0 1 -0.2974266,0.05866 0.60092326,0.60092326 0 0 1 -0.3581274,0.586761 0.34800944,0.34800944 0 0 1 0.060693,0.113301 0.01416318,0.01416318 0 0 1 -0.00162,0 z"
     id="path25"
     style="stroke-width:0.0202331" />
  <path
     fill="#b1361e"
     d="M 12.41908,0 H 0.5806916 A 0.58069016,0.58069016 0 0 0 0,0.5806916 V 12.265308 A 0.58069016,0.58069016 0 0 0 0.5806916,12.846 H 12.41908 a 0.58069016,0.58069016 0 0 0 0.580692,-0.580692 V 0.5806916 A 0.58069016,0.58069016 0 0 0 12.41908,0 Z m -0.536176,7.8666327 c -0.07686,0.1214016 -0.198287,0.2023333 -0.327773,0.2347027 a 0.48964118,0.48964118 0 0 1 -0.435013,0.8032556 0.44108173,0.44108173 0 0 0 -0.0041,-0.02226 0.42489524,0.42489524 0 0 1 -0.582715,0.473452 0.34598613,0.34598613 0 0 1 -0.05265,0.151748 c -0.0546,0.087 -0.141632,0.141632 -0.23268,0.155794 a 0.72029859,0.72029859 0 0 1 0.01211,0.246841 0.72232191,0.72232191 0 0 1 -0.8012335,0.6333 h 0.02023 a 0.59485334,0.59485334 0 0 1 0.03039,0.20638 0.59687665,0.59687665 0 0 1 -0.611038,0.580691 0.59485334,0.59485334 0 0 1 -0.254942,-0.06475 0.53820064,0.53820064 0 0 1 -0.9185802,0.315635 0.48964118,0.48964118 0 0 1 -0.9125108,0.04046 0.42489524,0.42489524 0 0 1 -0.6899547,-0.267073 0.34598613,0.34598613 0 0 1 -0.1578172,0.03437 C 5.7886355,11.38511 5.6449799,11.24754 5.6287952,11.075561 l 0.00162,-0.0041 A 0.71827529,0.71827529 0 0 1 5.2884775,11.354764 0.72232191,0.72232191 0 0 1 4.3577589,10.972359 0.59485334,0.59485334 0 0 1 4.1918412,11.097799 0.59687665,0.59687665 0 0 1 3.3906165,10.838819 0.59283003,0.59283003 0 0 1 3.3238302,10.583885 0.53820064,0.53820064 0 0 1 2.6095984,9.928331 0.48964118,0.48964118 0 0 1 2.1361467,9.14733 0.42489524,0.42489524 0 0 1 2.0410453,8.4128668 0.34598613,0.34598613 0 0 1 1.9358365,8.2914733 0.34800944,0.34800944 0 0 1 1.9415239,7.9616692 l 0.010156,0.00162 A 0.71827529,0.71827529 0 0 1 1.6825847,7.8338002 0.72232191,0.72232191 0 0 1 1.5409522,6.8342884 0.59485334,0.59485334 0 0 1 1.3507574,6.755396 0.59687665,0.59687665 0 0 1 1.1686631,5.9319093 0.59283003,0.59283003 0 0 1 1.3568267,5.7477838 0.53820064,0.53820064 0 0 1 1.55916,4.7968343 0.48964118,0.48964118 0 0 1 1.9961961,3.9956015 l 0.00162,0.022262 A 0.42489524,0.42489524 0 0 1 2.5805358,3.5423889 0.34598613,0.34598613 0 0 1 2.6331036,3.3906409 C 2.6877026,3.305663 2.7747361,3.2510315 2.8678145,3.2348468 A 0.72029859,0.72029859 0 0 1 2.8536772,2.9900205 0.72232191,0.72232191 0 0 1 3.6367022,2.3547054 0.59485334,0.59485334 0 0 1 3.6043652,2.150349 C 3.6145213,1.8205529 3.8876221,1.5595419 4.2154032,1.5696574 A 0.59283003,0.59283003 0 0 1 4.4703369,1.6323812 0.53820064,0.53820064 0 0 1 5.3889251,1.3187699 0.48964118,0.48964118 0 0 1 6.3014359,1.2762769 0.42489524,0.42489524 0 0 1 6.9913825,1.5433572 0.34598613,0.34598613 0 0 1 7.1491997,1.510939 c 0.1780562,0.00406 0.3196887,0.1416325 0.3378965,0.3115964 l -0.00406,0.00569 A 0.71625198,0.71625198 0 0 1 7.8249684,1.5429347 C 8.1891651,1.3952329 8.6019245,1.567228 8.7556955,1.9273623 a 0.59485334,0.59485334 0 0 1 0.165909,-0.1274709 0.59687665,0.59687665 0 0 1 0.803256,0.258988 0.59283003,0.59283003 0 0 1 0.06475,0.2549336 0.53820064,0.53820064 0 0 1 0.7162475,0.6575772 0.48964118,0.48964118 0 0 1 0.47346,0.7789787 0.42489524,0.42489524 0 0 1 0.09509,0.7344546 0.34598613,0.34598613 0 0 1 0.103186,0.1214016 0.34800944,0.34800944 0 0 1 -0.0057,0.3318273 0.71827529,0.71827529 0 0 1 0.261011,0.1274628 0.72232191,0.72232191 0 0 1 0.13961,0.9974968 0.59485334,0.59485334 0 0 1 0.190186,0.080923 0.59687665,0.59687665 0 0 1 0.182103,0.8214637 0.59283003,0.59283003 0 0 1 -0.186149,0.1861405 0.53820064,0.53820064 0 0 1 0.123425,0.7142318 z"
     id="path27"
     style="opacity:1;stroke-width:0.0202331" />
  <path
     fill="#b1361e"
     d="M 6.2034745,1.8169292 A 0.48761787,0.48761787 0 0 1 5.8433239,1.9626079 0.48559456,0.48559456 0 0 1 5.5276814,1.8371683 0.53820064,0.53820064 0 0 1 4.9935289,2.2337344 0.53617733,0.53617733 0 0 1 4.797273,2.1932726 0.59485334,0.59485334 0 0 1 4.2226506,2.7597945 0.71827529,0.71827529 0 0 1 4.2894369,3.1583919 0.72232191,0.72232191 0 0 1 3.8969088,3.7188445 c 0.10724,0.1112862 0.1699639,0.2630341 0.1659177,0.4309668 A 0.59889996,0.59889996 0 0 1 3.9373788,4.5018695 c 0.1740019,0.097116 0.2873111,0.2832568 0.283265,0.4957056 a 0.55034051,0.55034051 0 0 1 -0.038431,0.1821024 0.49571111,0.49571111 0 0 1 0.4451284,0.5078523 0.49975774,0.49975774 0 0 1 -0.00569,0.07483 0.40061551,0.40061551 0 0 1 0.084978,-0.00569 c 0.1861486,0.00406 0.3399196,0.1355551 0.3803814,0.3095651 a 0.35812599,0.35812599 0 0 1 0.2063795,-0.060693 c 0.1679408,0.00406 0.3034959,0.1214016 0.3419427,0.2771957 A 0.2266108,0.2266108 0 0 1 5.8417152,6.2746157 0.73243846,0.73243846 0 0 1 6.0056017,5.9326811 0.2266108,0.2266108 0 0 1 5.9408466,5.85582 0.22863411,0.22863411 0 0 1 5.9424716,5.6433712 0.3601493,0.3601493 0 0 1 5.7664465,5.0384025 0.3985922,0.3985922 0 0 1 5.5722056,4.8563001 0.40061551,0.40061551 0 0 1 5.7806082,4.3019167 0.40466213,0.40466213 0 0 0 5.74819,4.316054 0.49571111,0.49571111 0 0 1 5.638935,4.1744215 0.49571111,0.49571111 0 0 1 5.9768235,3.4622209 v -0.00162 A 0.55236381,0.55236381 0 0 1 6.2135574,2.7180409 0.54831719,0.54831719 0 0 1 6.5130071,2.6573482 0.60092326,0.60092326 0 0 1 6.8367339,2.086772 0.6069932,0.6069932 0 0 1 6.8690709,2.0726347 0.34800944,0.34800944 0 0 1 6.8104094,1.9593255 0.42489524,0.42489524 0 0 1 6.56356,2.0301742 0.42489524,0.42489524 0 0 1 6.2054407,1.8157024 Z M 10.547519,6.2075207 A 0.72232191,0.72232191 0 0 1 10.270323,5.5802898 C 10.120598,5.6146578 9.9567115,5.5923958 9.8171025,5.5013978 A 0.59889996,0.59889996 0 0 1 9.5783535,5.2120632 0.55236381,0.55236381 0 0 1 9.0098005,5.197926 0.55034051,0.55034051 0 0 1 8.8701905,5.0704551 C 8.7164195,5.2768346 8.4270853,5.3334892 8.2065442,5.1918567 A 0.50178105,0.50178105 0 0 1 8.1458515,5.1473325 0.40061551,0.40061551 0 0 1 8.1094522,5.2241936 0.40061551,0.40061551 0 0 1 7.648139,5.3880882 0.35812599,0.35812599 0 0 1 7.5915088,5.5964827 C 7.5024847,5.7381152 7.3305059,5.7947698 7.1787579,5.7462075 a 0.2266108,0.2266108 0 0 1 -0.034368,0.1153324 c -0.012106,0.0182 -0.026325,0.034368 -0.040462,0.046555 a 0.73446177,0.73446177 0 0 1 0.1699557,0.305519 0.2266108,0.2266108 0 0 1 0.1011626,-0.022262 0.22863411,0.22863411 0 0 1 0.1861486,0.1052169 0.3601493,0.3601493 0 0 1 0.6150842,0.1315171 0.3985922,0.3985922 0 0 1 0.2529105,-0.082963 c 0.222564,0.00406 0.394551,0.1881717 0.390505,0.4087128 a 0.40061551,0.40061551 0 0 1 -0.0041,0.040462 l 0.0041,-0.038431 a 0.49571111,0.49571111 0 0 1 0.176025,-0.028356 0.49571111,0.49571111 0 0 1 0.485598,0.5098673 0.49773442,0.49773442 0 0 1 -0.02023,0.1274709 c 0.305519,0.00812 0.5462995,0.261011 0.538206,0.56653 a 0.54831719,0.54831719 0 0 1 -0.09106,0.2893343 0.60092326,0.60092326 0 0 1 0.3500355,0.5604528 0.60092326,0.60092326 0 0 1 -0.04046,0.196264 l 0.0016,-0.0041 0.0546,0.01016 A 0.42489524,0.42489524 0 0 1 10.340819,8.73466 0.42489524,0.42489524 0 0 1 10.709062,8.538396 0.48761787,0.48761787 0 0 1 10.769752,8.1539683 0.48559456,0.48559456 0 0 1 11.042908,7.951635 0.53820064,0.53820064 0 0 1 10.976122,7.2879885 0.53617733,0.53617733 0 0 1 11.115731,7.1423098 0.59485334,0.59485334 0 0 1 10.925536,6.3552468 0.71827529,0.71827529 0 0 1 10.549201,6.207545 Z"
     id="path29"
     style="stroke-width:0.0202331" />
  <path
     fill="#b1361e"
     d="M 10.575842,4.5807781 A 0.34800944,0.34800944 0 0 1 10.620372,4.5221161 0.42489524,0.42489524 0 0 1 10.4403,4.3400137 0.42489524,0.42489524 0 0 1 10.45647,3.9232167 C 10.331016,3.8868178 10.221761,3.8018155 10.157014,3.6763759 A 0.48559456,0.48559456 0 0 1 10.116552,3.3384793 0.53820064,0.53820064 0 0 1 9.5115835,3.0612836 0.53820064,0.53820064 0 0 1 9.4549525,2.8670508 0.59485334,0.59485334 0 0 1 8.6820515,2.634363 0.71827529,0.71827529 0 0 1 8.3643939,2.8832355 0.72232191,0.72232191 0 0 1 7.6845546,2.8063743 v -0.00569 A 0.60092326,0.60092326 0 0 1 7.3851049,3.1588144 0.59889996,0.59889996 0 0 1 7.0148389,3.219507 0.55236381,0.55236381 0 0 1 6.7153892,3.7010592 0.55034051,0.55034051 0 0 1 6.5373411,3.7576894 c 0.099139,0.2367259 0,0.5139216 -0.2326797,0.633292 a 0.49975774,0.49975774 0 0 1 -0.068817,0.030387 0.40061551,0.40061551 0 0 1 0.046555,0.070849 c 0.084978,0.1659096 0.042493,0.3641886 -0.091055,0.481544 A 0.35812599,0.35812599 0 0 1 6.343092,5.1275322 C 6.4199532,5.275234 6.3835538,5.451259 6.2621684,5.558499 a 0.2266108,0.2266108 0 0 1 0.082955,0.089024 c 0.010156,0.0182 0.016169,0.036399 0.020231,0.054599 A 0.73446177,0.73446177 0 0 1 6.7295508,5.6939972 0.22863411,0.22863411 0 0 1 6.7599378,5.6171361 0.22863411,0.22863411 0 0 1 6.9440552,5.5119192 0.3601493,0.3601493 0 0 1 7.375022,5.0526291 0.3985922,0.3985922 0 0 1 7.4357146,4.7936493 C 7.5530701,4.6075007 7.7999114,4.5528692 7.9860599,4.6722477 a 0.49571111,0.49571111 0 0 1 0.068818,-0.1659096 0.49571111,0.49571111 0 0 1 0.6879316,-0.1517479 0.49571111,0.49571111 0 0 1 0.09712,0.082955 0.55236381,0.55236381 0 0 1 0.762786,-0.1699639 0.54831719,0.54831719 0 0 1 0.202333,0.2286416 c 0.192218,-0.129494 0.4511985,-0.1416325 0.6575775,-0.00812 a 0.60092326,0.60092326 0 0 1 0.113302,0.093078 z M 6.7720195,7.2515485 A 0.2266108,0.2266108 0 0 1 6.7456949,7.1220546 0.73648508,0.73648508 0 0 1 6.5635925,7.1443167 c -0.060693,0 -0.1193704,-0.00569 -0.1740019,-0.020231 A 0.2266108,0.2266108 0 0 1 6.3572536,7.2839261 0.22863411,0.22863411 0 0 1 6.171105,7.389143 0.3601493,0.3601493 0 0 1 5.7421613,7.8464099 0.3985922,0.3985922 0 0 1 5.6814687,8.1053897 0.40061551,0.40061551 0 0 1 5.1291084,8.2267914 0.49571111,0.49571111 0 0 1 5.0602909,8.3927009 0.49571111,0.49571111 0 0 1 4.3743904,8.544449 0.49773442,0.49773442 0 0 1 4.2752509,8.4614941 v 0.00162 A 0.55236381,0.55236381 0 0 1 3.5124569,8.631052 0.54831719,0.54831719 0 0 1 3.3101317,8.4044414 C 3.1179138,8.533935 2.8609571,8.546074 2.6525545,8.4125662 a 0.60294658,0.60294658 0 0 1 -0.1133092,-0.09307 0.35205605,0.35205605 0 0 1 -0.044524,0.05663 0.42489524,0.42489524 0 0 1 0.1820943,0.1820948 0.42489524,0.42489524 0 0 1 -0.0182,0.416805 c 0.1254396,0.0364 0.2367258,0.121393 0.2994497,0.246841 a 0.48559456,0.48559456 0 0 1 0.040462,0.337897 0.53820064,0.53820064 0 0 1 0.6069999,0.27921 0.53617733,0.53617733 0 0 1 0.054599,0.192218 0.59485334,0.59485334 0 0 1 0.7749326,0.23268 0.71827529,0.71827529 0 0 1 0.3176576,-0.248865 c 0.2326796,-0.09307 0.4855983,-0.05663 0.6798311,0.07686 A 0.59889996,0.59889996 0 0 1 5.7299742,9.739808 0.59889996,0.59889996 0 0 1 6.1002401,9.681148 C 6.1018601,9.484892 6.2115263,9.294697 6.3996899,9.197581 a 0.55236381,0.55236381 0 0 1 0.1800793,-0.05663 c -0.1011707,-0.236726 0,-0.513922 0.2306566,-0.6332925 a 0.49773442,0.49773442 0 0 1 0.070849,-0.028356 0.3985922,0.3985922 0 0 1 -0.048587,-0.07288 C 6.7477099,8.2405142 6.792226,8.0442502 6.9237349,7.9269029 A 0.35812599,0.35812599 0 0 1 6.771987,7.7731318 C 6.697157,7.623407 6.7335564,7.4473738 6.8529105,7.340142 A 0.2266108,0.2266108 0 0 1 6.7719865,7.251118 Z"
     id="path31"
     style="stroke-width:0.0202331" />
  <path
     fill="#b1361e"
     d="M 5.8756934,6.6668107 A 0.2266108,0.2266108 0 0 1 5.7401301,6.7072725 0.22863411,0.22863411 0 0 1 5.5539897,6.6040868 0.3601493,0.3601493 0 0 1 4.9409286,6.4725698 0.3985922,0.3985922 0 0 1 4.6859868,6.5534933 C 4.4654457,6.5494309 4.2914438,6.3653298 4.297513,6.1447886 A 0.49571111,0.49571111 0 0 1 4.1194568,6.1711132 0.49571111,0.49571111 0 0 1 3.6561206,5.533775 h -0.00162 C 3.3509997,5.5280876 3.1082046,5.2747871 3.116297,4.9692681 A 0.54831719,0.54831719 0 0 1 3.2073441,4.6799338 0.60092326,0.60092326 0 0 1 2.8613633,4.1194731 0.60092326,0.60092326 0 0 1 2.8977627,3.9252402 0.35205605,0.35205605 0 0 1 2.8431637,3.9150842 0.42489524,0.42489524 0 0 1 2.7763773,4.1639485 0.42489524,0.42489524 0 0 1 2.4081344,4.3602126 c 0.032418,0.1274627 0.014137,0.2650491 -0.060693,0.3844276 A 0.48559456,0.48559456 0 0 1 2.0763153,4.9489966 C 2.244248,5.1250216 2.2786486,5.3981712 2.1410703,5.612643 A 0.53617733,0.53617733 0 0 1 2.0034841,5.7583217 0.59485334,0.59485334 0 0 1 2.1936788,6.5433616 0.71827529,0.71827529 0 0 1 2.567991,6.6930865 0.72232191,0.72232191 0 0 1 2.8451786,7.3182942 c 0.151748,-0.034368 0.3136195,-0.010156 0.4552439,0.080924 a 0.59889996,0.59889996 0 0 1 0.2367339,0.2873112 0.55236381,0.55236381 0 0 1 0.568545,0.016169 0.55034051,0.55034051 0 0 1 0.1396094,0.1254396 C 4.3990819,7.6217658 4.6904392,7.5651111 4.9089573,7.7067436 a 0.49773442,0.49773442 0 0 1 0.060693,0.046556 0.40061551,0.40061551 0 0 1 0.03843,-0.076861 C 5.1092512,7.5186207 5.2994379,7.4558968 5.4694018,7.5105283 A 0.35812599,0.35812599 0 0 1 5.5240008,7.3041489 C 5.6150561,7.1625164 5.7870349,7.1078929 5.9367598,7.1564471 A 0.2266108,0.2266108 0 0 1 6.0702999,6.9541219 0.73648508,0.73648508 0 0 1 5.876059,6.6708569 Z"
     id="path33"
     style="stroke-width:0.0202331" />
</svg>
