<?xml version="1.0" encoding="UTF-8" standalone="no"?>
<svg
   width="16"
   height="15.81074"
   version="1.1"
   id="svg35"
   sodipodi:docname="cw_logo_16.svg"
   inkscape:version="1.2.2 (732a01da63, 2022-12-09)"
   xmlns:inkscape="http://www.inkscape.org/namespaces/inkscape"
   xmlns:sodipodi="http://sodipodi.sourceforge.net/DTD/sodipodi-0.dtd"
   xmlns="http://www.w3.org/2000/svg"
   xmlns:svg="http://www.w3.org/2000/svg">
  <defs
     id="defs39" />
  <sodipodi:namedview
     id="namedview37"
     pagecolor="#ffffff"
     bordercolor="#000000"
     borderopacity="0.25"
     inkscape:showpageshadow="2"
     inkscape:pageopacity="0.0"
     inkscape:pagecheckerboard="0"
     inkscape:deskcolor="#d1d1d1"
     showgrid="false"
     inkscape:zoom="43.174514"
     inkscape:cx="11.963076"
     inkscape:cy="6.8327347"
     inkscape:window-width="2304"
     inkscape:window-height="1202"
     inkscape:window-x="-11"
     inkscape:window-y="1285"
     inkscape:window-maximized="1"
     inkscape:current-layer="svg35" />
  <path
     fill="#b1361e"
     d="m 7.76218,13.46739 a 0.5229572,0.5229572 0 0 1 0.30381,-0.0897 0.5229572,0.5229572 0 0 1 0.44078,0.26148 0.60015564,0.60015564 0 0 1 0.44327,-0.1793 0.59766537,0.59766537 0 0 1 0.39097,0.15689 0.66241245,0.66241245 0 0 1 0.65494,-0.49058 0.65992218,0.65992218 0 0 1 0.24156,0.0523 v 0.0149 c 0.01,-0.39097 0.32374,-0.70225 0.70724,-0.7147 a 0.88404669,0.88404669 0 0 1 -0.0822,-0.49059 c 0.0374,-0.3063 0.22661,-0.55782 0.48311,-0.6898 l 0.002,0.002 c -0.13198,-0.13697 -0.21167,-0.32374 -0.20669,-0.53043 a 0.73712062,0.73712062 0 0 1 0.1544,-0.4358 0.67984436,0.67984436 0 0 1 -0.30133,-0.83424 0.61011673,0.61011673 0 0 1 -0.54786,-0.62257 0.61509728,0.61509728 0 0 1 0.007,-0.0946 0.49307393,0.49307393 0 0 1 -0.10459,0.01 0.49307393,0.49307393 0 0 1 -0.46568,-0.38101 0.44077821,0.44077821 0 0 1 -0.2565,0.0747 C 9.42221,8.47934 9.25287,8.33692 9.20805,8.14517 A 0.27891051,0.27891051 0 0 1 9.06361,8.18007 0.27891051,0.27891051 0 0 1 8.94408,8.15017 v -0.005 a 0.90645914,0.90645914 0 0 1 -0.24156,0.39844 0.27891051,0.27891051 0 0 1 0.1295,0.12452 0.28140078,0.28140078 0 0 1 -0.005,0.26397 0.44326848,0.44326848 0 0 1 0.21914,0.7421 0.49058366,0.49058366 0 0 1 0.23907,0.22412 c 0.12451,0.24156 0.0274,0.5379 -0.21417,0.66242 a 0.61011673,0.61011673 0 0 1 0.13199,0.17431 c 0.15439,0.30133 0.0374,0.67238 -0.26397,0.82179 a 0.612607,0.612607 0 0 1 -0.14942,0.0548 v 0.002 a 0.67984436,0.67984436 0 0 1 -0.29385,0.91642 0.67486381,0.67486381 0 0 1 -0.36607,0.0722 0.73961089,0.73961089 0 0 1 -0.44078,0.72218 0.42832685,0.42832685 0 0 1 0.0747,0.13945 0.01743191,0.01743191 0 0 1 -0.002,0 z"
     id="path25"
     style="stroke-width:0.0249027" />
  <path
     fill="#b1361e"
     d="M 15.28529,0 H 0.71471 A 0.71470817,0.71470817 0 0 0 0,0.71471 v 14.38132 a 0.71470817,0.71470817 0 0 0 0.71471,0.71471 H 15.28529 A 0.71470817,0.71470817 0 0 0 16,15.09603 V 0.71471 A 0.71470817,0.71470817 0 0 0 15.28529,0 Z m -0.65992,9.68218 c -0.0946,0.14942 -0.24405,0.24903 -0.40342,0.28887 a 0.60264591,0.60264591 0 0 1 -0.53541,0.98864 0.54287938,0.54287938 0 0 0 -0.005,-0.0274 0.5229572,0.5229572 0 0 1 -0.7172,0.58272 0.42583658,0.42583658 0 0 1 -0.0648,0.18677 c -0.0672,0.10708 -0.17432,0.17432 -0.28638,0.19175 a 0.88653696,0.88653696 0 0 1 0.0149,0.30381 0.88902724,0.88902724 0 0 1 -0.98615,0.77946 h 0.0249 a 0.73214008,0.73214008 0 0 1 0.0374,0.25401 0.73463035,0.73463035 0 0 1 -0.75206,0.71471 0.73214008,0.73214008 0 0 1 -0.31378,-0.0797 0.66241245,0.66241245 0 0 1 -1.13058,0.38848 0.60264591,0.60264591 0 0 1 -1.12311,0.0498 0.5229572,0.5229572 0 0 1 -0.84919,-0.32871 0.42583658,0.42583658 0 0 1 -0.19424,0.0423 C 7.1246,14.01269 6.94779,13.84337 6.92787,13.6317 l 0.002,-0.005 A 0.88404669,0.88404669 0 0 1 6.50901,13.97534 0.88902724,0.88902724 0 0 1 5.36349,13.50468 0.73214008,0.73214008 0 0 1 5.15928,13.65907 0.73463035,0.73463035 0 0 1 4.17314,13.34032 0.72964981,0.72964981 0 0 1 4.09094,13.02655 0.66241245,0.66241245 0 0 1 3.21187,12.2197 0.60264591,0.60264591 0 0 1 2.62915,11.25845 0.5229572,0.5229572 0 0 1 2.5121,10.35448 0.42583658,0.42583658 0 0 1 2.38261,10.20507 0.42832685,0.42832685 0 0 1 2.38961,9.79915 l 0.0125,0.002 A 0.88404669,0.88404669 0 0 1 2.07091,9.64177 0.88902724,0.88902724 0 0 1 1.89659,8.41158 0.73214008,0.73214008 0 0 1 1.6625,8.31448 0.73463035,0.73463035 0 0 1 1.43838,7.30094 0.72964981,0.72964981 0 0 1 1.66997,7.07432 0.66241245,0.66241245 0 0 1 1.919,5.9039 0.60264591,0.60264591 0 0 1 2.4569,4.91775 l 0.002,0.0274 A 0.5229572,0.5229572 0 0 1 3.1761,4.35994 0.42583658,0.42583658 0 0 1 3.2408,4.17317 C 3.308,4.06858 3.41512,4.00134 3.52968,3.98142 A 0.88653696,0.88653696 0 0 1 3.51228,3.68009 0.88902724,0.88902724 0 0 1 4.47602,2.89815 0.73214008,0.73214008 0 0 1 4.43622,2.64663 C 4.44872,2.24072 4.78485,1.91947 5.18828,1.93192 a 0.72964981,0.72964981 0 0 1 0.31377,0.0772 0.66241245,0.66241245 0 0 1 1.13059,-0.38599 0.60264591,0.60264591 0 0 1 1.12311,-0.0523 0.5229572,0.5229572 0 0 1 0.84918,0.32872 0.42583658,0.42583658 0 0 1 0.19424,-0.0399 c 0.21915,0.005 0.39347,0.17432 0.41588,0.38351 l -0.005,0.007 A 0.88155642,0.88155642 0 0 1 9.6309,1.89903 c 0.44825,-0.18179 0.95627,0.0299 1.14553,0.47315 a 0.73214008,0.73214008 0 0 1 0.2042,-0.15689 0.73463035,0.73463035 0 0 1 0.98864,0.31876 0.72964981,0.72964981 0 0 1 0.0797,0.31377 0.66241245,0.66241245 0 0 1 0.88155,0.80934 0.60264591,0.60264591 0 0 1 0.58273,0.95876 0.5229572,0.5229572 0 0 1 0.11704,0.90396 0.42583658,0.42583658 0 0 1 0.127,0.14942 0.42832685,0.42832685 0 0 1 -0.007,0.40841 0.88404669,0.88404669 0 0 1 0.32125,0.15688 0.88902724,0.88902724 0 0 1 0.17183,1.22771 0.73214008,0.73214008 0 0 1 0.23408,0.0996 0.73463035,0.73463035 0 0 1 0.22413,1.01105 0.72964981,0.72964981 0 0 1 -0.22911,0.2291 0.66241245,0.66241245 0 0 1 0.15191,0.87907 z"
     id="path27"
     style="opacity:1;stroke-width:0.0249027" />
  <path
     fill="#b1361e"
     d="M 7.63518,2.23626 A 0.60015564,0.60015564 0 0 1 7.19191,2.41556 0.59766537,0.59766537 0 0 1 6.80342,2.26117 0.66241245,0.66241245 0 0 1 6.14599,2.74926 0.65992218,0.65992218 0 0 1 5.90444,2.69946 0.73214008,0.73214008 0 0 1 5.1972,3.39673 0.88404669,0.88404669 0 0 1 5.2794,3.88732 0.88902724,0.88902724 0 0 1 4.79628,4.57712 c 0.13199,0.13697 0.20919,0.32374 0.20421,0.53043 a 0.73712062,0.73712062 0 0 1 -0.1544,0.43331 c 0.21416,0.11953 0.35362,0.34863 0.34864,0.61011 a 0.67735409,0.67735409 0 0 1 -0.0473,0.22413 0.61011673,0.61011673 0 0 1 0.54786,0.62506 0.61509728,0.61509728 0 0 1 -0.007,0.0921 0.49307393,0.49307393 0 0 1 0.10459,-0.007 c 0.22911,0.005 0.41837,0.16684 0.46817,0.38101 a 0.44077821,0.44077821 0 0 1 0.25401,-0.0747 c 0.2067,0.005 0.37354,0.14942 0.42086,0.34117 A 0.27891051,0.27891051 0 0 1 7.18993,7.72274 0.9014786,0.9014786 0 0 1 7.39164,7.30189 0.27891051,0.27891051 0 0 1 7.31194,7.20729 0.28140078,0.28140078 0 0 1 7.31394,6.94581 0.44326848,0.44326848 0 0 1 7.09729,6.20122 0.49058366,0.49058366 0 0 1 6.85822,5.97709 0.49307393,0.49307393 0 0 1 7.11472,5.29476 0.49805447,0.49805447 0 0 0 7.07482,5.31216 0.61011673,0.61011673 0 0 1 6.94035,5.13784 0.61011673,0.61011673 0 0 1 7.35622,4.26127 v -0.002 A 0.67984436,0.67984436 0 0 1 7.64759,3.34534 0.67486381,0.67486381 0 0 1 8.01615,3.27064 0.73961089,0.73961089 0 0 1 8.41459,2.56838 0.74708171,0.74708171 0 0 1 8.45439,2.55098 0.42832685,0.42832685 0 0 1 8.38219,2.41152 0.5229572,0.5229572 0 0 1 8.07837,2.49872 0.5229572,0.5229572 0 0 1 7.6376,2.23475 Z m 5.34661,5.4039 A 0.88902724,0.88902724 0 0 1 12.64062,6.86817 c -0.18428,0.0423 -0.38599,0.0149 -0.55782,-0.0971 A 0.73712062,0.73712062 0 0 1 11.78895,6.41496 0.67984436,0.67984436 0 0 1 11.08918,6.39756 0.67735409,0.67735409 0 0 1 10.91735,6.24067 C 10.72809,6.49468 10.37198,6.56441 10.10054,6.39009 A 0.61758755,0.61758755 0 0 1 10.02584,6.33529 0.49307393,0.49307393 0 0 1 9.98104,6.42989 0.49307393,0.49307393 0 0 1 9.41326,6.63161 0.44077821,0.44077821 0 0 1 9.34356,6.8881 C 9.23399,7.06242 9.02232,7.13215 8.83555,7.07238 a 0.27891051,0.27891051 0 0 1 -0.0423,0.14195 c -0.0149,0.0224 -0.0324,0.0423 -0.0498,0.0573 a 0.90396887,0.90396887 0 0 1 0.20918,0.37603 0.27891051,0.27891051 0 0 1 0.12451,-0.0274 0.28140078,0.28140078 0 0 1 0.22911,0.1295 0.44326848,0.44326848 0 0 1 0.75704,0.16187 0.49058366,0.49058366 0 0 1 0.31128,-0.10211 c 0.27393,0.005 0.48561,0.2316 0.48063,0.50304 a 0.49307393,0.49307393 0 0 1 -0.005,0.0498 l 0.005,-0.0473 a 0.61011673,0.61011673 0 0 1 0.21665,-0.0349 0.61011673,0.61011673 0 0 1 0.59767,0.62754 0.612607,0.612607 0 0 1 -0.0249,0.15689 c 0.37603,0.01 0.67238,0.32125 0.66242,0.69728 a 0.67486381,0.67486381 0 0 1 -0.11207,0.35611 0.73961089,0.73961089 0 0 1 0.43082,0.6898 0.73961089,0.73961089 0 0 1 -0.0498,0.24156 l 0.002,-0.005 0.0672,0.0125 a 0.5229572,0.5229572 0 0 1 0.0822,-0.3063 0.5229572,0.5229572 0 0 1 0.45323,-0.24156 0.60015564,0.60015564 0 0 1 0.0747,-0.47315 0.59766537,0.59766537 0 0 1 0.33619,-0.24903 0.66241245,0.66241245 0 0 1 -0.0822,-0.81681 0.65992218,0.65992218 0 0 1 0.17183,-0.1793 0.73214008,0.73214008 0 0 1 -0.23409,-0.96871 0.88404669,0.88404669 0 0 1 -0.46319,-0.18179 z"
     id="path29"
     style="stroke-width:0.0249027" />
  <path
     fill="#b1361e"
     d="m 13.01665,5.63798 a 0.42832685,0.42832685 0 0 1 0.0548,-0.0722 0.5229572,0.5229572 0 0 1 -0.22163,-0.22413 0.5229572,0.5229572 0 0 1 0.0199,-0.51299 C 12.71532,4.78386 12.58085,4.67924 12.50116,4.52485 A 0.59766537,0.59766537 0 0 1 12.45136,4.10897 0.66241245,0.66241245 0 0 1 11.70677,3.7678 0.66241245,0.66241245 0 0 1 11.63707,3.52874 0.73214008,0.73214008 0 0 1 10.68579,3.24235 0.88404669,0.88404669 0 0 1 10.29482,3.54866 0.88902724,0.88902724 0 0 1 9.45808,3.45406 v -0.007 A 0.73961089,0.73961089 0 0 1 9.08952,3.88784 0.73712062,0.73712062 0 0 1 8.6338,3.96254 0.67984436,0.67984436 0 0 1 8.26524,4.55523 0.67735409,0.67735409 0 0 1 8.0461,4.62493 c 0.12202,0.29136 0,0.63253 -0.28638,0.77945 a 0.61509728,0.61509728 0 0 1 -0.0847,0.0374 0.49307393,0.49307393 0 0 1 0.0573,0.0872 c 0.10459,0.2042 0.0523,0.44824 -0.11207,0.59268 a 0.44077821,0.44077821 0 0 1 0.18677,0.18926 c 0.0946,0.18179 0.0498,0.39844 -0.0996,0.53043 a 0.27891051,0.27891051 0 0 1 0.1021,0.10957 c 0.0125,0.0224 0.0199,0.0448 0.0249,0.0672 a 0.90396887,0.90396887 0 0 1 0.44825,-0.01 0.28140078,0.28140078 0 0 1 0.0374,-0.0946 0.28140078,0.28140078 0 0 1 0.22661,-0.1295 0.44326848,0.44326848 0 0 1 0.53043,-0.56529 0.49058366,0.49058366 0 0 1 0.0747,-0.31875 C 9.29625,5.67087 9.60006,5.60363 9.82917,5.75056 a 0.61011673,0.61011673 0 0 1 0.0847,-0.2042 0.61011673,0.61011673 0 0 1 0.8467,-0.18677 0.61011673,0.61011673 0 0 1 0.11953,0.1021 0.67984436,0.67984436 0 0 1 0.93883,-0.20919 0.67486381,0.67486381 0 0 1 0.24903,0.28141 c 0.23658,-0.15938 0.55533,-0.17432 0.80934,-0.01 a 0.73961089,0.73961089 0 0 1 0.13945,0.11456 z M 8.33494,8.92514 A 0.27891051,0.27891051 0 0 1 8.30254,8.76576 0.90645914,0.90645914 0 0 1 8.07841,8.79316 c -0.0747,0 -0.14692,-0.007 -0.21416,-0.0249 a 0.27891051,0.27891051 0 0 1 -0.0398,0.19673 0.28140078,0.28140078 0 0 1 -0.22911,0.1295 0.44326848,0.44326848 0 0 1 -0.52794,0.5628 0.49058366,0.49058366 0 0 1 -0.0747,0.31875 0.49307393,0.49307393 0 0 1 -0.67984,0.14942 0.61011673,0.61011673 0 0 1 -0.0847,0.2042 0.61011673,0.61011673 0 0 1 -0.8442,0.18677 0.612607,0.612607 0 0 1 -0.12202,-0.1021 v 0.002 A 0.67984436,0.67984436 0 0 1 4.3231,10.62302 0.67486381,0.67486381 0 0 1 4.07408,10.34411 c -0.23658,0.15938 -0.55284,0.17432 -0.80934,0.01 a 0.74210117,0.74210117 0 0 1 -0.13946,-0.11455 0.43330739,0.43330739 0 0 1 -0.0548,0.0697 0.5229572,0.5229572 0 0 1 0.22412,0.22412 0.5229572,0.5229572 0 0 1 -0.0224,0.513 c 0.15439,0.0448 0.29136,0.14941 0.36856,0.30381 a 0.59766537,0.59766537 0 0 1 0.0498,0.41588 0.66241245,0.66241245 0 0 1 0.74709,0.34365 0.65992218,0.65992218 0 0 1 0.0672,0.23658 0.73214008,0.73214008 0 0 1 0.95378,0.28638 0.88404669,0.88404669 0 0 1 0.39097,-0.3063 c 0.28638,-0.11455 0.59767,-0.0697 0.83673,0.0946 a 0.73712062,0.73712062 0 0 1 0.36607,-0.43331 0.73712062,0.73712062 0 0 1 0.45572,-0.0722 c 0.002,-0.24155 0.13697,-0.47564 0.36856,-0.59517 a 0.67984436,0.67984436 0 0 1 0.22164,-0.0697 c -0.12452,-0.29136 0,-0.63253 0.28389,-0.77945 a 0.612607,0.612607 0 0 1 0.0872,-0.0349 0.49058366,0.49058366 0 0 1 -0.0598,-0.0897 C 8.30502,10.14235 8.35981,9.90079 8.52167,9.75636 A 0.44077821,0.44077821 0 0 1 8.3349,9.5671 C 8.2428,9.38282 8.2876,9.16616 8.4345,9.03418 A 0.27891051,0.27891051 0 0 1 8.3349,8.92461 Z"
     id="path31"
     style="stroke-width:0.0249027" />
  <path
     fill="#b1361e"
     d="M 7.23175,8.20545 A 0.27891051,0.27891051 0 0 1 7.0649,8.25525 0.28140078,0.28140078 0 0 1 6.8358,8.12825 0.44326848,0.44326848 0 0 1 6.08125,7.96638 0.49058366,0.49058366 0 0 1 5.76747,8.06598 C 5.49603,8.06098 5.28187,7.83439 5.28934,7.56295 A 0.61011673,0.61011673 0 0 1 5.07019,7.59535 0.61011673,0.61011673 0 0 1 4.49992,6.81092 h -0.002 C 4.12438,6.80392 3.82555,6.49216 3.83551,6.11613 A 0.67486381,0.67486381 0 0 1 3.94757,5.76002 0.73961089,0.73961089 0 0 1 3.52174,5.07021 0.73961089,0.73961089 0 0 1 3.56654,4.83115 0.43330739,0.43330739 0 0 1 3.49934,4.81865 0.5229572,0.5229572 0 0 1 3.41714,5.12495 0.5229572,0.5229572 0 0 1 2.96391,5.36651 c 0.0399,0.15688 0.0174,0.32622 -0.0747,0.47315 a 0.59766537,0.59766537 0 0 1 -0.3337,0.25152 c 0.20669,0.21665 0.24903,0.55284 0.0797,0.81681 a 0.65992218,0.65992218 0 0 1 -0.16934,0.1793 0.73214008,0.73214008 0 0 1 0.23409,0.96622 0.88404669,0.88404669 0 0 1 0.4607,0.18428 0.88902724,0.88902724 0 0 1 0.34116,0.7695 c 0.18677,-0.0423 0.386,-0.0125 0.56031,0.0996 A 0.73712062,0.73712062 0 0 1 4.3535,9.46051 0.67984436,0.67984436 0 0 1 5.05326,9.48041 0.67735409,0.67735409 0 0 1 5.22509,9.6348 C 5.41435,9.3808 5.77295,9.31107 6.0419,9.48539 a 0.612607,0.612607 0 0 1 0.0747,0.0573 0.49307393,0.49307393 0 0 1 0.0473,-0.0946 C 6.28842,9.25385 6.5225,9.17665 6.73169,9.24389 A 0.44077821,0.44077821 0 0 1 6.79889,8.98988 C 6.91096,8.81556 7.12263,8.74833 7.30691,8.80809 A 0.27891051,0.27891051 0 0 1 7.47127,8.55907 0.90645914,0.90645914 0 0 1 7.2322,8.21043 Z"
     id="path33"
     style="stroke-width:0.0249027" />
</svg>
