<?xml version="1.0" encoding="UTF-8" standalone="no"?>
<svg
   width="29.999962"
   height="29.6451"
   version="1.1"
   id="svg374"
   sodipodi:docname="cw_logo_30.svg"
   inkscape:version="1.2.2 (732a01da63, 2022-12-09)"
   xmlns:inkscape="http://www.inkscape.org/namespaces/inkscape"
   xmlns:sodipodi="http://sodipodi.sourceforge.net/DTD/sodipodi-0.dtd"
   xmlns="http://www.w3.org/2000/svg"
   xmlns:svg="http://www.w3.org/2000/svg">
  <defs
     id="defs378" />
  <sodipodi:namedview
     id="namedview376"
     pagecolor="#ffffff"
     bordercolor="#000000"
     borderopacity="0.25"
     inkscape:showpageshadow="2"
     inkscape:pageopacity="0.0"
     inkscape:pagecheckerboard="0"
     inkscape:deskcolor="#d1d1d1"
     showgrid="false"
     inkscape:zoom="2.8284271"
     inkscape:cx="28.461048"
     inkscape:cy="18.384776"
     inkscape:window-width="1920"
     inkscape:window-height="986"
     inkscape:window-x="-11"
     inkscape:window-y="-11"
     inkscape:window-maximized="1"
     inkscape:current-layer="svg374" />
  <path
     fill="#b1361e"
     d="m 14.554068,25.25133 a 0.98054355,0.98054355 0 0 1 0.569654,-0.16809 0.98054355,0.98054355 0 0 1 0.82645,0.49027 1.1252905,1.1252905 0 0 1 0.83113,-0.33619 1.1206212,1.1206212 0 0 1 0.73307,0.29417 1.2420218,1.2420218 0 0 1 1.22802,-0.91985 1.2373526,1.2373526 0 0 1 0.45292,0.0981 v 0.028 c 0.0187,-0.73307 0.607,-1.31673 1.32606,-1.34007 a 1.6575855,1.6575855 0 0 1 -0.15408,-0.91985 c 0.07,-0.57431 0.4249,-1.04591 0.90583,-1.29338 l 0.005,0.005 c -0.24747,-0.25681 -0.39689,-0.60701 -0.38755,-0.99456 a 1.3820995,1.3820995 0 0 1 0.28949,-0.81712 1.2747066,1.2747066 0 0 1 -0.56498,-1.5642 1.1439675,1.1439675 0 0 1 -1.02723,-1.16731 1.153306,1.153306 0 0 1 0.014,-0.17743 0.92451249,0.92451249 0 0 1 -0.19611,0.0187 0.92451249,0.92451249 0 0 1 -0.87315,-0.714391 0.82645814,0.82645814 0 0 1 -0.48093,0.140077 c -0.38288,-0.01401 -0.70039,-0.280155 -0.78444,-0.639687 a 0.52295657,0.52295657 0 0 1 -0.27082,0.06537 0.52295657,0.52295657 0 0 1 -0.22412,-0.05603 v -0.0093 a 1.6996088,1.6996088 0 0 1 -0.45292,0.747081 0.52295657,0.52295657 0 0 1 0.2428,0.23346 0.52762581,0.52762581 0 0 1 -0.009,0.49495 0.8311274,0.8311274 0 0 1 0.41089,1.39143 0.91984323,0.91984323 0 0 1 0.44825,0.42024 c 0.23346,0.45291 0.0514,1.00856 -0.40155,1.24202 a 1.1439675,1.1439675 0 0 1 0.24747,0.32685 c 0.28949,0.56498 0.07,1.2607 -0.49494,1.54085 a 1.1486367,1.1486367 0 0 1 -0.28016,0.10272 v 0.005 a 1.2747066,1.2747066 0 0 1 -0.55097,1.71828 1.2653681,1.2653681 0 0 1 -0.68638,0.13541 1.3867687,1.3867687 0 0 1 -0.826461,1.35409 0.80311187,0.80311187 0 0 1 0.140078,0.26148 0.03268479,0.03268479 0 0 1 -0.0047,0 z"
     id="path364"
     style="stroke-width:0.0466926" />
  <path
     fill="#b1361e"
     d="M 28.659892,0 H 1.340076 A 1.3400762,1.3400762 0 0 0 0,1.340076 V 28.30502 a 1.3400762,1.3400762 0 0 0 1.340076,1.34008 h 27.319816 a 1.3400762,1.3400762 0 0 0 1.34007,-1.34008 V 1.340076 A 1.3400762,1.3400762 0 0 0 28.659892,0 Z m -1.23736,18.15406 c -0.17743,0.28016 -0.45758,0.46693 -0.75642,0.54164 a 1.1299597,1.1299597 0 0 1 -1.00389,1.85369 1.0178976,1.0178976 0 0 0 -0.009,-0.0514 0.98054355,0.98054355 0 0 1 -1.34475,1.09261 0.79844261,0.79844261 0 0 1 -0.1214,0.35019 c -0.12607,0.20078 -0.32684,0.32685 -0.53696,0.35953 a 1.6622549,1.6622549 0 0 1 0.028,0.56965 1.6669241,1.6669241 0 0 1 -1.84902,1.46148 h 0.0467 a 1.372761,1.372761 0 0 1 0.07,0.47626 1.3774302,1.3774302 0 0 1 -1.41011,1.34008 1.372761,1.372761 0 0 1 -0.58833,-0.14942 1.2420218,1.2420218 0 0 1 -2.11984,0.72841 1.1299597,1.1299597 0 0 1 -2.10584,0.0934 0.98054355,0.98054355 0 0 1 -1.592212,-0.61634 0.79844261,0.79844261 0 0 1 -0.364201,0.0794 c -0.406226,-0.009 -0.737742,-0.32685 -0.775097,-0.72374 l 0.0047,-0.009 A 1.6575855,1.6575855 0 0 1 12.205757,26.20419 1.6669241,1.6669241 0 0 1 10.0579,25.3217 1.372761,1.372761 0 0 1 9.675022,25.6112 1.3774302,1.3774302 0 0 1 7.825995,25.01353 1.3680917,1.3680917 0 0 1 7.671911,24.42521 1.2420218,1.2420218 0 0 1 6.023665,22.91237 1.1299597,1.1299597 0 0 1 4.931058,21.11004 0.98054355,0.98054355 0 0 1 4.711603,19.4151 0.79844261,0.79844261 0 0 1 4.468802,19.13494 0.80311187,0.80311187 0 0 1 4.482812,18.37385 l 0.02335,0.005 A 1.6575855,1.6575855 0 0 1 3.88515,18.08002 1.6669241,1.6669241 0 0 1 3.558303,15.773403 1.372761,1.372761 0 0 1 3.119392,15.591302 1.3774302,1.3774302 0 0 1 2.69916,13.690915 1.3680917,1.3680917 0 0 1 3.133401,13.266013 1.2420218,1.2420218 0 0 1 3.600325,11.071464 1.1299597,1.1299597 0 0 1 4.608885,9.222437 l 0.0047,0.05136 A 0.98054355,0.98054355 0 0 1 5.95833,8.176521 0.79844261,0.79844261 0 0 1 6.079731,7.826326 C 6.2058,7.630218 6.406578,7.504149 6.621365,7.466794 A 1.6622549,1.6622549 0 0 1 6.588675,6.901815 1.6669241,1.6669241 0 0 1 8.395677,5.435668 1.372761,1.372761 0 0 1 8.320967,4.964073 C 8.344317,4.202985 8.974663,3.600651 9.731083,3.623997 a 1.3680917,1.3680917 0 0 1 0.588325,0.144747 1.2420218,1.2420218 0 0 1 2.119843,-0.723734 1.1299597,1.1299597 0 0 1 2.105833,-0.09806 0.98054355,0.98054355 0 0 1 1.592218,0.616341 0.79844261,0.79844261 0 0 1 0.3642,-0.07471 c 0.4109,0.0093 0.73775,0.326849 0.77977,0.719065 l -0.009,0.01401 a 1.6529163,1.6529163 0 0 1 0.78911,-0.658364 c 0.84046,-0.340856 1.79299,0.05603 2.14786,0.887158 a 1.372761,1.372761 0 0 1 0.38288,-0.294162 1.3774302,1.3774302 0 0 1 1.85369,0.597664 1.3680917,1.3680917 0 0 1 0.14942,0.588326 1.2420218,1.2420218 0 0 1 1.65291,1.517508 1.1299597,1.1299597 0 0 1 1.09261,1.797663 0.98054355,0.98054355 0 0 1 0.21945,1.69494 0.79844261,0.79844261 0 0 1 0.23813,0.280155 0.80311187,0.80311187 0 0 1 -0.014,0.765758 1.6575855,1.6575855 0 0 1 0.60234,0.294163 1.6669241,1.6669241 0 0 1 0.32218,2.301942 1.372761,1.372761 0 0 1 0.43891,0.186771 1.3774302,1.3774302 0 0 1 0.42023,1.895722 1.3680917,1.3680917 0 0 1 -0.42957,0.42957 1.2420218,1.2420218 0 0 1 0.28482,1.64825 z"
     id="path366"
     style="stroke-width:0.0466926" />
  <path
     fill="#b1361e"
     d="M 14.315935,4.192991 A 1.1252905,1.1252905 0 0 1 13.484809,4.529178 1.1206212,1.1206212 0 0 1 12.756405,4.239684 1.2420218,1.2420218 0 0 1 11.523722,5.154858 1.2373526,1.2373526 0 0 1 11.070804,5.061478 1.372761,1.372761 0 0 1 9.744735,6.368869 1.6575855,1.6575855 0 0 1 9.898821,7.288712 1.6669241,1.6669241 0 0 1 8.992986,8.582096 c 0.24747,0.256809 0.392217,0.607003 0.382878,0.994551 A 1.3820995,1.3820995 0 0 1 9.08637,10.389098 c 0.401556,0.224124 0.663034,0.653695 0.653696,1.143968 a 1.2700374,1.2700374 0 0 1 -0.08871,0.420232 1.1439675,1.1439675 0 0 1 1.027236,1.171983 1.153306,1.153306 0 0 1 -0.01401,0.172763 0.92451249,0.92451249 0 0 1 0.196109,-0.01401 c 0.429571,0.0093 0.784435,0.312839 0.877821,0.714395 a 0.82645814,0.82645814 0 0 1 0.476263,-0.140077 c 0.387547,0.0093 0.700388,0.280155 0.789103,0.639688 a 0.52295657,0.52295657 0 0 1 0.476266,-0.01868 1.6902704,1.6902704 0 0 1 0.378208,-0.789105 0.52295657,0.52295657 0 0 1 -0.149415,-0.177432 0.52762581,0.52762581 0 0 1 0.0047,-0.490272 0.8311274,0.8311274 0 0 1 -0.406224,-1.396107 0.91984323,0.91984323 0 0 1 -0.44825,-0.420233 0.92451249,0.92451249 0 0 1 0.480935,-1.279375 0.933851,0.933851 0 0 0 -0.07471,0.03269 1.1439675,1.1439675 0 0 1 -0.252139,-0.326849 1.1439675,1.1439675 0 0 1 0.779765,-1.643576 v -0.0047 a 1.2747066,1.2747066 0 0 1 0.546304,-1.713617 1.2653681,1.2653681 0 0 1 0.691054,-0.140078 1.3867687,1.3867687 0 0 1 0.74708,-1.316729 1.4007765,1.4007765 0 0 1 0.0747,-0.03269 0.80311187,0.80311187 0 0 1 -0.13541,-0.261479 0.98054355,0.98054355 0 0 1 -0.56965,0.163424 0.98054355,0.98054355 0 0 1 -0.826463,-0.494942 z m 10.024897,10.132284 a 1.6669241,1.6669241 0 0 1 -0.63969,-1.447469 c -0.34553,0.07938 -0.72374,0.02802 -1.04592,-0.182101 a 1.3820995,1.3820995 0 0 1 -0.55097,-0.667704 1.2747066,1.2747066 0 0 1 -1.31206,-0.03269 1.2700374,1.2700374 0 0 1 -0.32218,-0.294162 c -0.35486,0.476263 -1.02256,0.607001 -1.53151,0.280155 a 1.1579752,1.1579752 0 0 1 -0.14008,-0.102725 0.92451249,0.92451249 0 0 1 -0.0841,0.177432 0.92451249,0.92451249 0 0 1 -1.06459,0.37821 0.82645814,0.82645814 0 0 1 -0.13074,0.480933 c -0.20544,0.326848 -0.60233,0.457587 -0.95252,0.345525 a 0.52295657,0.52295657 0 0 1 -0.0794,0.266148 c -0.028,0.04202 -0.0607,0.07938 -0.0934,0.107393 a 1.6949396,1.6949396 0 0 1 0.39222,0.705056 0.52295657,0.52295657 0 0 1 0.23346,-0.05136 0.52762581,0.52762581 0 0 1 0.42957,0.242802 0.8311274,0.8311274 0 0 1 1.41946,0.303501 0.91984323,0.91984323 0 0 1 0.58366,-0.191439 c 0.51361,0.0093 0.9105,0.434241 0.90116,0.94319 a 0.92451249,0.92451249 0 0 1 -0.009,0.09339 l 0.009,-0.08872 a 1.1439675,1.1439675 0 0 1 0.40623,-0.06537 1.1439675,1.1439675 0 0 1 1.12062,1.17666 1.1486367,1.1486367 0 0 1 -0.0467,0.29416 c 0.70506,0.0187 1.2607,0.60233 1.24203,1.30739 a 1.2653681,1.2653681 0 0 1 -0.21012,0.6677 1.3867687,1.3867687 0 0 1 0.80778,1.29339 1.3867687,1.3867687 0 0 1 -0.0934,0.45291 l 0.005,-0.009 0.12607,0.0233 a 0.98054355,0.98054355 0 0 1 0.15409,-0.57432 0.98054355,0.98054355 0 0 1 0.8498,-0.45292 1.1252905,1.1252905 0 0 1 0.14008,-0.88715 1.1206212,1.1206212 0 0 1 0.63035,-0.46693 1.2420218,1.2420218 0 0 1 -0.15409,-1.53152 1.2373526,1.2373526 0 0 1 0.32218,-0.33618 1.372761,1.372761 0 0 1 -0.43891,-1.816345 1.6575855,1.6575855 0 0 1 -0.86848,-0.340856 z"
     id="path368"
     style="stroke-width:0.0466926" />
  <path
     fill="#b1361e"
     d="m 24.406192,10.571193 a 0.80311187,0.80311187 0 0 1 0.10273,-0.135408 0.98054355,0.98054355 0 0 1 -0.41557,-0.420233 0.98054355,0.98054355 0 0 1 0.0374,-0.961867 c -0.2895,-0.08405 -0.54164,-0.280155 -0.69105,-0.569649 a 1.1206212,1.1206212 0 0 1 -0.0934,-0.779764 1.2420218,1.2420218 0 0 1 -1.3961,-0.639689 1.2420218,1.2420218 0 0 1 -0.13074,-0.448248 1.372761,1.372761 0 0 1 -1.78366,-0.536966 1.6575855,1.6575855 0 0 1 -0.73307,0.574319 1.6669241,1.6669241 0 0 1 -1.56887,-0.177432 v -0.01401 a 1.3867687,1.3867687 0 0 1 -0.69105,0.826458 1.3820995,1.3820995 0 0 1 -0.85447,0.140077 1.2747066,1.2747066 0 0 1 -0.69105,1.111283 1.2700374,1.2700374 0 0 1 -0.4109,0.13074 c 0.22879,0.546303 0,1.18599 -0.536963,1.461477 a 1.153306,1.153306 0 0 1 -0.158754,0.07004 0.92451249,0.92451249 0 0 1 0.107392,0.163423 c 0.196109,0.38288 0.09806,0.840467 -0.210117,1.111284 a 0.82645814,0.82645814 0 0 1 0.350195,0.354863 c 0.177431,0.340856 0.09338,0.747081 -0.18677,0.994551 a 0.52295657,0.52295657 0 0 1 0.191439,0.205448 c 0.02335,0.04202 0.03735,0.08405 0.04669,0.12607 a 1.6949396,1.6949396 0 0 1 0.840468,-0.01868 0.52762581,0.52762581 0 0 1 0.07,-0.177431 0.52762581,0.52762581 0 0 1 0.4249,-0.242801 0.8311274,0.8311274 0 0 1 0.99455,-1.059922 0.91984323,0.91984323 0 0 1 0.14008,-0.597664 c 0.27082,-0.429572 0.84047,-0.55564 1.27004,-0.280155 a 1.1439675,1.1439675 0 0 1 0.15875,-0.38288 1.1439675,1.1439675 0 0 1 1.58755,-0.350192 1.1439675,1.1439675 0 0 1 0.22412,0.191439 1.2747066,1.2747066 0 0 1 1.76031,-0.392217 1.2653681,1.2653681 0 0 1 0.46693,0.527625 c 0.44358,-0.298832 1.04124,-0.326847 1.51751,-0.01868 a 1.3867687,1.3867687 0 0 1 0.26147,0.214785 z m -8.77819,6.163417 a 0.52295657,0.52295657 0 0 1 -0.0607,-0.29883 1.6996088,1.6996088 0 0 1 -0.42023,0.0514 c -0.14008,0 -0.275484,-0.014 -0.401555,-0.0467 a 0.52295657,0.52295657 0 0 1 -0.07471,0.36887 0.52762581,0.52762581 0 0 1 -0.429572,0.2428 0.8311274,0.8311274 0 0 1 -0.989882,1.05525 0.91984323,0.91984323 0 0 1 -0.140077,0.59767 0.92451249,0.92451249 0 0 1 -1.274707,0.28015 1.1439675,1.1439675 0 0 1 -0.158754,0.38288 1.1439675,1.1439675 0 0 1 -1.582878,0.35019 1.1486367,1.1486367 0 0 1 -0.228794,-0.19144 v 0.005 A 1.2747066,1.2747066 0 0 1 8.105835,19.9194 1.2653681,1.2653681 0 0 1 7.638909,19.39644 C 7.19533,19.69527 6.602334,19.72329 6.1214,19.41514 a 1.391438,1.391438 0 0 1 -0.261478,-0.21479 0.81245037,0.81245037 0 0 1 -0.102723,0.13074 0.98054355,0.98054355 0 0 1 0.420233,0.42023 0.98054355,0.98054355 0 0 1 -0.04202,0.96187 c 0.289492,0.084 0.546301,0.28016 0.691048,0.56965 a 1.1206212,1.1206212 0 0 1 0.09339,0.77977 1.2420218,1.2420218 0 0 1 1.400776,0.64435 1.2373526,1.2373526 0 0 1 0.126071,0.44358 1.372761,1.372761 0 0 1 1.788324,0.53697 1.6575855,1.6575855 0 0 1 0.733074,-0.57432 c 0.536964,-0.21479 1.12062,-0.13074 1.56887,0.17743 a 1.3820995,1.3820995 0 0 1 0.68638,-0.81245 1.3820995,1.3820995 0 0 1 0.854473,-0.13541 c 0.0047,-0.45292 0.25681,-0.89183 0.691051,-1.11595 a 1.2747066,1.2747066 0 0 1 0.415563,-0.13074 c -0.233464,-0.5463 0,-1.18599 0.53229,-1.46148 a 1.1486367,1.1486367 0 0 1 0.16343,-0.0654 0.91984323,0.91984323 0 0 1 -0.11207,-0.16809 c -0.19611,-0.38288 -0.0934,-0.8358 0.21012,-1.10661 a 0.82645814,0.82645814 0 0 1 -0.35019,-0.35487 c -0.17277,-0.34552 -0.0887,-0.75175 0.18677,-0.99922 a 0.52295657,0.52295657 0 0 1 -0.18677,-0.20544 z"
     id="path370"
     style="stroke-width:0.0466926" />
  <path
     fill="#b1361e"
     d="m 13.559517,15.385196 a 0.52295657,0.52295657 0 0 1 -0.31284,0.09339 0.52762581,0.52762581 0 0 1 -0.429572,-0.238132 0.8311274,0.8311274 0 0 1 -1.414784,-0.303503 0.91984323,0.91984323 0 0 1 -0.588326,0.186771 c -0.508948,-0.0093 -0.910504,-0.434241 -0.896498,-0.943189 a 1.1439675,1.1439675 0 0 1 -0.410893,0.0607 1.1439675,1.1439675 0 0 1 -1.06926,-1.470816 h -0.0047 C 7.732257,12.756407 7.171945,12.172752 7.190623,11.467696 A 1.2653681,1.2653681 0 0 1 7.400739,10.799992 1.3867687,1.3867687 0 0 1 6.602296,9.506607 1.3867687,1.3867687 0 0 1 6.686346,9.05836 0.81245037,0.81245037 0 0 1 6.560277,9.03501 0.98054355,0.98054355 0 0 1 6.40619,9.609328 0.98054355,0.98054355 0 0 1 5.556387,10.062246 c 0.07471,0.294163 0.03268,0.611673 -0.140078,0.887158 a 1.1206212,1.1206212 0 0 1 -0.62568,0.471594 c 0.387548,0.406226 0.466925,1.036575 0.149415,1.531517 a 1.2373526,1.2373526 0 0 1 -0.317508,0.336186 1.372761,1.372761 0 0 1 0.438909,1.811671 1.6575855,1.6575855 0 0 1 0.863813,0.345525 1.6669241,1.6669241 0 0 1 0.639688,1.442803 c 0.350193,-0.0794 0.723734,-0.0233 1.050582,0.18677 a 1.3820995,1.3820995 0 0 1 0.546303,0.66303 1.2747066,1.2747066 0 0 1 1.312061,0.0374 1.2700374,1.2700374 0 0 1 0.322179,0.2895 c 0.354862,-0.47627 1.027236,-0.60701 1.531515,-0.28016 a 1.1486367,1.1486367 0 0 1 0.140077,0.1074 0.92451249,0.92451249 0 0 1 0.08872,-0.17744 c 0.233463,-0.3642 0.672372,-0.50895 1.064591,-0.38287 a 0.82645814,0.82645814 0 0 1 0.126069,-0.47627 c 0.210117,-0.32685 0.607003,-0.45292 0.952528,-0.34086 a 0.52295657,0.52295657 0 0 1 0.30817,-0.46692 1.6996088,1.6996088 0 0 1 -0.448247,-0.653696 z"
     id="path372"
     style="stroke-width:0.0466926" />
</svg>
