<?xml version="1.0" encoding="UTF-8" standalone="no"?>
<svg
   width="59.999924"
   height="59.290199"
   version="1.1"
   id="svg374"
   sodipodi:docname="cw_logo_60.svg"
   inkscape:version="1.2.2 (732a01da63, 2022-12-09)"
   xmlns:inkscape="http://www.inkscape.org/namespaces/inkscape"
   xmlns:sodipodi="http://sodipodi.sourceforge.net/DTD/sodipodi-0.dtd"
   xmlns="http://www.w3.org/2000/svg"
   xmlns:svg="http://www.w3.org/2000/svg">
  <defs
     id="defs378" />
  <sodipodi:namedview
     id="namedview376"
     pagecolor="#ffffff"
     bordercolor="#000000"
     borderopacity="0.25"
     inkscape:showpageshadow="2"
     inkscape:pageopacity="0.0"
     inkscape:pagecheckerboard="0"
     inkscape:deskcolor="#d1d1d1"
     showgrid="false"
     inkscape:zoom="2.8284271"
     inkscape:cx="-41.542523"
     inkscape:cy="33.941126"
     inkscape:window-width="1920"
     inkscape:window-height="986"
     inkscape:window-x="-11"
     inkscape:window-y="-11"
     inkscape:window-maximized="1"
     inkscape:current-layer="svg374" />
  <path
     fill="#b1361e"
     d="m 29.108136,50.50266 a 1.9610871,1.9610871 0 0 1 1.139298,-0.33618 1.9610871,1.9610871 0 0 1 1.65292,0.98054 2.2505809,2.2505809 0 0 1 1.66225,-0.67237 2.2412424,2.2412424 0 0 1 1.46615,0.58832 2.4840436,2.4840437 0 0 1 2.45603,-1.83968 2.4747052,2.4747052 0 0 1 0.90583,0.19611 v 0.056 c 0.0374,-1.46615 1.21401,-2.63346 2.65214,-2.68016 a 3.315171,3.315171 0 0 1 -0.30817,-1.83968 c 0.14007,-1.14864 0.8498,-2.09183 1.81167,-2.58677 l 0.009,0.009 c -0.49494,-0.51362 -0.79377,-1.21401 -0.7751,-1.9891 a 2.7641989,2.764199 0 0 1 0.57899,-1.63424 2.5494132,2.5494132 0 0 1 -1.12996,-3.1284 2.2879349,2.2879349 0 0 1 -2.05447,-2.33463 2.306612,2.306612 0 0 1 0.028,-0.35486 1.849025,1.849025 0 0 1 -0.39222,0.0374 1.849025,1.849025 0 0 1 -1.7463,-1.42879 1.6529163,1.6529163 0 0 1 -0.96187,0.28015 c -0.76576,-0.028 -1.40078,-0.56031 -1.56887,-1.279372 a 1.0459131,1.0459131 0 0 1 -0.54163,0.130737 1.0459131,1.0459131 0 0 1 -0.44825,-0.112062 v -0.01869 a 3.3992175,3.3992175 0 0 1 -0.90584,1.494167 1.0459131,1.0459131 0 0 1 0.48561,0.46692 1.0552516,1.0552516 0 0 1 -0.0187,0.98988 1.6622548,1.6622548 0 0 1 0.82179,2.78288 1.8396865,1.8396865 0 0 1 0.89649,0.84046 c 0.46693,0.90584 0.10273,2.01712 -0.80311,2.48405 a 2.2879349,2.2879349 0 0 1 0.49494,0.65369 c 0.57899,1.12996 0.14008,2.5214 -0.98988,3.08171 a 2.2972735,2.2972735 0 0 1 -0.56031,0.20545 v 0.009 a 2.5494132,2.5494132 0 0 1 -1.10194,3.43657 2.5307362,2.5307362 0 0 1 -1.37277,0.27082 2.7735375,2.7735375 0 0 1 -1.652912,2.70816 1.6062237,1.6062237 0 0 1 0.280155,0.52296 0.06536957,0.06536957 0 0 1 -0.0093,0 z"
     id="path364"
     style="stroke-width:0.0933852" />
  <path
     fill="#b1361e"
     d="M 57.319774,0 H 2.680152 A 2.6801524,2.6801524 0 0 0 0,2.680152 V 56.61005 a 2.6801524,2.6801524 0 0 0 2.680152,2.68015 h 54.639622 a 2.6801524,2.6801524 0 0 0 2.68015,-2.68015 V 2.680152 A 2.6801524,2.6801524 0 0 0 57.319774,0 Z m -2.4747,36.30813 c -0.35487,0.56031 -0.91518,0.93385 -1.51284,1.08326 a 2.2599194,2.2599194 0 0 1 -2.00778,3.70739 2.0357952,2.0357952 0 0 0 -0.0187,-0.10272 1.9610871,1.9610871 0 0 1 -2.68949,2.18521 1.5968852,1.5968852 0 0 1 -0.2428,0.70039 c -0.25214,0.40155 -0.6537,0.65369 -1.07393,0.71906 a 3.3245097,3.3245097 0 0 1 0.056,1.1393 3.3338481,3.3338481 0 0 1 -3.69805,2.92296 h 0.0934 a 2.7455219,2.7455219 0 0 1 0.14008,0.95252 2.7548605,2.7548605 0 0 1 -2.82023,2.68016 2.7455219,2.7455219 0 0 1 -1.17665,-0.29883 2.4840436,2.4840437 0 0 1 -4.23968,1.4568 2.2599194,2.2599194 0 0 1 -4.21167,0.18677 1.9610871,1.9610871 0 0 1 -3.184434,-1.23268 1.5968852,1.5968852 0 0 1 -0.728403,0.15875 C 26.717446,52.54777 26.054413,51.91278 25.979704,51.119 l 0.0093,-0.0187 a 3.315171,3.315171 0 0 1 -1.57821,1.3074 3.3338481,3.3338481 0 0 1 -4.295715,-1.76498 2.7455219,2.7455219 0 0 1 -0.765756,0.57899 A 2.7548605,2.7548605 0 0 1 15.651271,50.02638 2.7361834,2.7361834 0 0 1 15.343102,48.84973 2.4840436,2.4840437 0 0 1 12.046609,45.82405 2.2599194,2.2599194 0 0 1 9.861397,42.21938 1.9610871,1.9610871 0 0 1 9.422485,38.8295 1.5968852,1.5968852 0 0 1 8.936884,38.26919 1.6062237,1.6062237 0 0 1 8.964904,36.74701 l 0.04669,0.009 A 3.315171,3.315171 0 0 1 7.76957,36.15835 3.3338481,3.3338481 0 0 1 7.115876,31.54513 2.7455219,2.7455219 0 0 1 6.238055,31.18093 2.7548605,2.7548605 0 0 1 5.39759,27.38015 2.7361834,2.7361834 0 0 1 6.266072,26.530346 2.4840436,2.4840437 0 0 1 7.199921,22.141247 2.2599194,2.2599194 0 0 1 9.21704,18.443195 l 0.0093,0.102726 a 1.9610871,1.9610871 0 0 1 2.689491,-2.194551 1.5968852,1.5968852 0 0 1 0.242802,-0.700389 c 0.252138,-0.392217 0.653694,-0.644355 1.083267,-0.719064 a 3.3245097,3.3245097 0 0 1 -0.06537,-1.129959 3.3338481,3.3338481 0 0 1 3.614004,-2.932293 2.7455219,2.7455219 0 0 1 -0.149418,-0.943191 c 0.04669,-1.522176 1.307391,-2.726844 2.820231,-2.680152 a 2.7361834,2.7361834 0 0 1 1.176651,0.289494 2.4840436,2.4840437 0 0 1 4.239684,-1.447467 2.2599194,2.2599194 0 0 1 4.211667,-0.19611 1.9610871,1.9610871 0 0 1 3.184435,1.232682 1.5968852,1.5968852 0 0 1 0.72841,-0.149415 c 0.82179,0.01869 1.47548,0.653697 1.55953,1.438131 l -0.0187,0.02802 a 3.3058326,3.3058326 0 0 1 1.57821,-1.31673 c 1.68093,-0.681711 3.58599,0.112062 4.29571,1.774317 a 2.7455219,2.7455219 0 0 1 0.76576,-0.588324 2.7548605,2.7548605 0 0 1 3.70739,1.195329 2.7361834,2.7361834 0 0 1 0.29883,1.176651 2.4840436,2.4840437 0 0 1 3.30583,3.035016 2.2599194,2.2599194 0 0 1 2.18521,3.595326 1.9610871,1.9610871 0 0 1 0.43891,3.38988 1.5968852,1.5968852 0 0 1 0.47627,0.56031 1.6062237,1.6062237 0 0 1 -0.028,1.531515 3.315171,3.315171 0 0 1 1.20467,0.588327 3.3338481,3.3338481 0 0 1 0.64435,4.603884 2.7455219,2.7455219 0 0 1 0.87783,0.373542 2.7548605,2.7548605 0 0 1 0.84046,3.79144 2.7361834,2.7361834 0 0 1 -0.85914,0.85914 2.4840436,2.4840437 0 0 1 0.56965,3.29649 z"
     id="path366"
     style="stroke-width:0.0933852" />
  <path
     fill="#b1361e"
     d="m 28.631871,8.385981 a 2.2505809,2.2505809 0 0 1 -1.662252,0.672375 2.2412424,2.2412424 0 0 1 -1.456809,-0.578988 2.4840436,2.4840437 0 0 1 -2.465367,1.830348 2.4747052,2.4747052 0 0 1 -0.905835,-0.186771 2.7455219,2.7455219 0 0 1 -2.652138,2.614782 3.315171,3.315171 0 0 1 0.308172,1.839687 3.3338481,3.3338481 0 0 1 -1.81167,2.586768 c 0.49494,0.513618 0.784434,1.214007 0.765756,1.989102 a 2.7641989,2.764199 0 0 1 -0.578988,1.624902 c 0.803112,0.448248 1.326069,1.307391 1.307391,2.287935 a 2.5400747,2.5400747 0 0 1 -0.177429,0.840465 2.2879349,2.2879349 0 0 1 2.054472,2.343966 2.306612,2.306612 0 0 1 -0.02802,0.345525 1.849025,1.849025 0 0 1 0.392217,-0.02802 c 0.859143,0.01869 1.568871,0.62568 1.755642,1.428792 a 1.6529163,1.6529163 0 0 1 0.952527,-0.280155 c 0.775095,0.01869 1.400775,0.56031 1.578207,1.279377 a 1.0459131,1.0459131 0 0 1 0.95253,-0.03735 3.3805407,3.3805407 0 0 1 0.756417,-1.57821 1.0459131,1.0459131 0 0 1 -0.29883,-0.354864 1.0552516,1.0552516 0 0 1 0.0093,-0.980544 1.6622548,1.6622548 0 0 1 -0.812448,-2.792214 1.8396865,1.8396865 0 0 1 -0.896499,-0.840465 1.849025,1.849025 0 0 1 0.961869,-2.558751 1.867702,1.867702 0 0 0 -0.149418,0.06537 2.2879349,2.2879349 0 0 1 -0.504279,-0.653697 2.2879349,2.2879349 0 0 1 1.559532,-3.287154 v -0.0093 a 2.5494132,2.5494132 0 0 1 1.092606,-3.427233 2.5307362,2.5307362 0 0 1 1.382097,-0.280155 2.7735375,2.7735375 0 0 1 1.49416,-2.63346 2.801553,2.801553 0 0 1 0.14942,-0.06537 1.6062237,1.6062237 0 0 1 -0.27082,-0.522957 1.9610871,1.9610871 0 0 1 -1.1393,0.326847 1.9610871,1.9610871 0 0 1 -1.652913,-0.989883 z m 20.049783,20.264568 a 3.3338481,3.3338481 0 0 1 -1.27938,-2.894937 c -0.69105,0.158754 -1.44747,0.05603 -2.09182,-0.364203 a 2.7641989,2.764199 0 0 1 -1.10195,-1.335408 2.5494132,2.5494132 0 0 1 -2.62412,-0.06537 2.5400747,2.5400747 0 0 1 -0.64436,-0.588324 c -0.70972,0.952527 -2.04513,1.214004 -3.06303,0.56031 a 2.3159505,2.3159505 0 0 1 -0.28015,-0.205449 1.849025,1.849025 0 0 1 -0.16809,0.354864 1.849025,1.849025 0 0 1 -2.12918,0.75642 1.6529163,1.6529163 0 0 1 -0.26149,0.961866 c -0.41089,0.653697 -1.20466,0.915174 -1.90505,0.69105 a 1.0459131,1.0459131 0 0 1 -0.15876,0.532296 c -0.056,0.08404 -0.12139,0.158754 -0.18676,0.214785 a 3.3898791,3.3898791 0 0 1 0.78443,1.410114 1.0459131,1.0459131 0 0 1 0.46693,-0.102723 1.0552516,1.0552516 0 0 1 0.85914,0.485604 1.6622548,1.6622548 0 0 1 2.8389,0.607002 1.8396865,1.8396865 0 0 1 1.16732,-0.382878 c 1.02724,0.01869 1.82101,0.868482 1.80233,1.886382 a 1.849025,1.849025 0 0 1 -0.0187,0.18677 l 0.0187,-0.17743 a 2.2879349,2.2879349 0 0 1 0.81245,-0.13074 2.2879349,2.2879349 0 0 1 2.24124,2.3533 2.2972735,2.2972735 0 0 1 -0.0934,0.58833 c 1.41011,0.0374 2.5214,1.20466 2.48404,2.61478 a 2.5307362,2.5307362 0 0 1 -0.42023,1.33541 2.7735375,2.7735375 0 0 1 1.61556,2.58676 2.7735375,2.7735375 0 0 1 -0.18677,0.90584 l 0.009,-0.0187 0.25214,0.0467 a 1.9610871,1.9610871 0 0 1 0.30817,-1.14864 1.9610871,1.9610871 0 0 1 1.69961,-0.90583 2.2505809,2.2505809 0 0 1 0.28016,-1.77432 2.2412424,2.2412424 0 0 1 1.2607,-0.93385 2.4840436,2.4840437 0 0 1 -0.30818,-3.06303 2.4747052,2.4747052 0 0 1 0.64436,-0.67238 2.7455219,2.7455219 0 0 1 -0.87782,-3.632675 3.315171,3.315171 0 0 1 -1.73696,-0.681711 z"
     id="path368"
     style="stroke-width:0.0933852" />
  <path
     fill="#b1361e"
     d="m 48.812394,21.142386 a 1.6062237,1.6062237 0 0 1 0.20545,-0.270816 1.9610871,1.9610871 0 0 1 -0.83113,-0.840465 1.9610871,1.9610871 0 0 1 0.0747,-1.923735 c -0.57899,-0.168093 -1.08327,-0.56031 -1.3821,-1.139298 a 2.2412424,2.2412424 0 0 1 -0.18677,-1.559529 2.4840436,2.4840437 0 0 1 -2.79222,-1.279377 2.4840436,2.4840437 0 0 1 -0.26148,-0.896496 2.7455219,2.7455219 0 0 1 -3.56731,-1.073931 3.315171,3.315171 0 0 1 -1.46614,1.148637 3.3338481,3.3338481 0 0 1 -3.13774,-0.354864 v -0.02802 a 2.7735375,2.7735375 0 0 1 -1.3821,1.652916 2.7641989,2.764199 0 0 1 -1.70895,0.280155 2.5494132,2.5494132 0 0 1 -1.3821,2.222565 2.5400747,2.5400747 0 0 1 -0.82179,0.26148 c 0.45759,1.092606 0,2.37198 -1.073927,2.922954 a 2.306612,2.306612 0 0 1 -0.317508,0.140076 1.849025,1.849025 0 0 1 0.214785,0.326847 c 0.392217,0.765759 0.19611,1.680933 -0.420234,2.222568 a 1.6529163,1.6529163 0 0 1 0.700389,0.709725 c 0.354864,0.681711 0.186771,1.494162 -0.373539,1.989102 a 1.0459131,1.0459131 0 0 1 0.382878,0.410895 c 0.04669,0.08405 0.07471,0.168093 0.09338,0.252141 a 3.3898791,3.3898791 0 0 1 1.680936,-0.03736 1.0552516,1.0552516 0 0 1 0.14008,-0.354861 1.0552516,1.0552516 0 0 1 0.8498,-0.485604 1.6622548,1.6622548 0 0 1 1.98911,-2.119842 1.8396865,1.8396865 0 0 1 0.28015,-1.195329 c 0.54163,-0.859143 1.68093,-1.111281 2.54008,-0.56031 a 2.2879349,2.2879349 0 0 1 0.3175,-0.765759 2.2879349,2.2879349 0 0 1 3.1751,-0.700386 2.2879349,2.2879349 0 0 1 0.44825,0.382878 2.5494132,2.5494132 0 0 1 3.52061,-0.784434 2.5307362,2.5307362 0 0 1 0.93386,1.05525 c 0.88715,-0.597663 2.08248,-0.653694 3.03501,-0.03735 a 2.7735375,2.7735375 0 0 1 0.52296,0.42957 z m -17.5564,12.326834 a 1.0459131,1.0459131 0 0 1 -0.1214,-0.59766 3.3992175,3.3992175 0 0 1 -0.84047,0.10272 c -0.28015,0 -0.550969,-0.028 -0.80311,-0.0934 a 1.0459131,1.0459131 0 0 1 -0.149415,0.73775 1.0552516,1.0552516 0 0 1 -0.859143,0.4856 1.6622548,1.6622548 0 0 1 -1.979763,2.1105 1.8396865,1.8396865 0 0 1 -0.280155,1.19533 1.849025,1.849025 0 0 1 -2.549415,0.56031 2.2879349,2.2879349 0 0 1 -0.317508,0.76576 2.2879349,2.2879349 0 0 1 -3.165756,0.70039 2.2972735,2.2972735 0 0 1 -0.457587,-0.38288 v 0.009 a 2.5494132,2.5494132 0 0 1 -3.520617,0.77509 2.5307362,2.5307362 0 0 1 -0.933852,-1.04591 c -0.887157,0.59767 -2.07315,0.6537 -3.035016,0.0374 a 2.782876,2.782876 0 0 1 -0.522957,-0.42958 1.6249007,1.6249007 0 0 1 -0.205446,0.26148 1.9610871,1.9610871 0 0 1 0.840465,0.84047 1.9610871,1.9610871 0 0 1 -0.08405,1.92373 c 0.578985,0.1681 1.092603,0.56031 1.382097,1.1393 a 2.2412424,2.2412424 0 0 1 0.186771,1.55953 2.4840436,2.4840437 0 0 1 2.801553,1.28872 2.4747052,2.4747052 0 0 1 0.252141,0.88715 2.7455219,2.7455219 0 0 1 3.576648,1.07393 3.315171,3.315171 0 0 1 1.466148,-1.14863 c 1.073928,-0.42958 2.24124,-0.26148 3.137739,0.35486 a 2.7641989,2.764199 0 0 1 1.372761,-1.6249 2.7641989,2.764199 0 0 1 1.708947,-0.27082 c 0.0093,-0.90583 0.513618,-1.78365 1.3821,-2.2319 a 2.5494132,2.5494132 0 0 1 0.83112,-0.26148 c -0.46692,-1.09261 0,-2.37198 1.06459,-2.92295 a 2.2972735,2.2972735 0 0 1 0.32685,-0.13074 1.8396865,1.8396865 0 0 1 -0.22412,-0.33619 c -0.39222,-0.76576 -0.18678,-1.67159 0.42023,-2.21323 a 1.6529163,1.6529163 0 0 1 -0.70039,-0.70972 c -0.34552,-0.69105 -0.17743,-1.5035 0.37354,-1.99845 a 1.0459131,1.0459131 0 0 1 -0.37354,-0.41089 z"
     id="path370"
     style="stroke-width:0.0933852" />
  <path
     fill="#b1361e"
     d="m 27.119034,30.770391 a 1.0459131,1.0459131 0 0 1 -0.62568,0.186769 1.0552516,1.0552516 0 0 1 -0.859143,-0.476263 1.6622548,1.6622548 0 0 1 -2.82957,-0.607005 1.8396865,1.8396865 0 0 1 -1.176651,0.373542 c -1.017897,-0.01869 -1.821009,-0.868482 -1.792995,-1.886379 a 2.2879349,2.2879349 0 0 1 -0.821787,0.121401 2.2879349,2.2879349 0 0 1 -2.13852,-2.941632 h -0.0093 c -1.400775,-0.02802 -2.521398,-1.195329 -2.484042,-2.605443 a 2.5307362,2.5307362 0 0 1 0.420231,-1.335408 2.7735375,2.7735375 0 0 1 -1.596885,-2.586768 2.7735375,2.7735375 0 0 1 0.168093,-0.896496 1.6249007,1.6249007 0 0 1 -0.252138,-0.04669 1.9610871,1.9610871 0 0 1 -0.308172,1.148637 1.9610871,1.9610871 0 0 1 -1.699608,0.905835 c 0.149415,0.588327 0.06537,1.223346 -0.280155,1.774317 a 2.2412424,2.2412424 0 0 1 -1.25136,0.943188 c 0.775095,0.812451 0.933849,2.07315 0.29883,3.063033 a 2.4747052,2.4747052 0 0 1 -0.635016,0.672372 2.7455219,2.7455219 0 0 1 0.877818,3.623343 3.315171,3.315171 0 0 1 1.727625,0.691046 3.3338481,3.3338481 0 0 1 1.279377,2.8856 c 0.700386,-0.15875 1.447467,-0.0467 2.101164,0.37354 a 2.7641989,2.764199 0 0 1 1.092606,1.32607 2.5494132,2.5494132 0 0 1 2.624121,0.0747 2.5400747,2.5400747 0 0 1 0.644358,0.57899 c 0.709725,-0.95253 2.054472,-1.21401 3.06303,-0.56031 a 2.2972735,2.2972735 0 0 1 0.280155,0.21478 1.849025,1.849025 0 0 1 0.177432,-0.35486 c 0.466926,-0.72841 1.344744,-1.0179 2.129181,-0.76576 a 1.6529163,1.6529163 0 0 1 0.252138,-0.95253 c 0.420234,-0.65369 1.214007,-0.90583 1.905057,-0.68171 a 1.0459131,1.0459131 0 0 1 0.616341,-0.93385 3.3992175,3.3992175 0 0 1 -0.896496,-1.307392 z"
     id="path372"
     style="stroke-width:0.0933852" />
</svg>
