<?xml version="1.0" encoding="UTF-8" standalone="no"?>
<svg
   width="199.99976"
   height="197.634"
   version="1.1"
   id="svg374"
   sodipodi:docname="cw_logo_200.svg"
   inkscape:version="1.2.2 (732a01da63, 2022-12-09)"
   xmlns:inkscape="http://www.inkscape.org/namespaces/inkscape"
   xmlns:sodipodi="http://sodipodi.sourceforge.net/DTD/sodipodi-0.dtd"
   xmlns="http://www.w3.org/2000/svg"
   xmlns:svg="http://www.w3.org/2000/svg">
  <defs
     id="defs378" />
  <sodipodi:namedview
     id="namedview376"
     pagecolor="#ffffff"
     bordercolor="#000000"
     borderopacity="0.25"
     inkscape:showpageshadow="2"
     inkscape:pageopacity="0.0"
     inkscape:pagecheckerboard="0"
     inkscape:deskcolor="#d1d1d1"
     showgrid="false"
     inkscape:zoom="0.5"
     inkscape:cx="-57"
     inkscape:cy="24"
     inkscape:window-width="2304"
     inkscape:window-height="1202"
     inkscape:window-x="-11"
     inkscape:window-y="1285"
     inkscape:window-maximized="1"
     inkscape:current-layer="svg374" />
  <path
     fill="#b1361e"
     d="m 97.02712,168.34221 a 6.536957,6.536957 0 0 1 3.79766,-1.12062 6.536957,6.536957 0 0 1 5.50972,3.26847 7.5019364,7.5019364 0 0 1 5.54085,-2.24124 7.470808,7.470808 0 0 1 4.88716,1.96109 8.2801455,8.2801455 0 0 1 8.18676,-6.13229 8.2490172,8.2490172 0 0 1 3.01945,0.6537 v 0.18677 c 0.12451,-4.88716 4.04669,-8.7782 8.84045,-8.93384 a 11.05057,11.05057 0 0 1 -1.02723,-6.13229 c 0.46692,-3.82879 2.83268,-6.97276 6.0389,-8.62256 l 0.0311,0.0311 c -1.6498,-1.71206 -2.64591,-4.04669 -2.58366,-6.63034 a 9.2139965,9.2139965 0 0 1 1.92996,-5.44747 8.4980441,8.4980441 0 0 1 -3.76653,-10.428 7.6264498,7.6264498 0 0 1 -6.84824,-7.78209 7.6887066,7.6887066 0 0 1 0.0934,-1.18288 6.1634166,6.1634166 0 0 1 -1.3074,0.12451 6.1634166,6.1634166 0 0 1 -5.821,-4.76264 5.5097209,5.5097209 0 0 1 -3.20622,0.93385 c -2.55253,-0.0934 -4.66926,-1.8677 -5.22957,-4.26458 a 3.4863771,3.4863771 0 0 1 -1.80544,0.43579 3.4863771,3.4863771 0 0 1 -1.49416,-0.37354 v -0.0623 a 11.330725,11.330725 0 0 1 -3.01946,4.98054 3.4863771,3.4863771 0 0 1 1.61868,1.55641 3.5175054,3.5175054 0 0 1 -0.0623,3.29961 5.5408493,5.5408493 0 0 1 2.7393,9.27625 6.1322882,6.1322882 0 0 1 2.98832,2.80156 c 1.55642,3.01945 0.34241,6.72372 -2.67704,8.28014 a 7.6264498,7.6264498 0 0 1 1.64981,2.17899 c 1.92995,3.76653 0.46692,8.40466 -3.29961,10.27236 a 7.6575782,7.6575782 0 0 1 -1.8677,0.68482 v 0.0311 a 8.4980441,8.4980441 0 0 1 -3.67315,11.45524 8.4357874,8.4357874 0 0 1 -4.57587,0.90272 9.2451249,9.2451249 0 0 1 -5.50972,9.02723 5.3540791,5.3540791 0 0 1 0.93385,1.74319 0.21789857,0.21789857 0 0 1 -0.0311,0 z"
     id="path364"
     style="stroke-width:0.311284" />
  <path
     fill="#b1361e"
     d="M 191.06592,0 H 8.93384 A 8.9338412,8.9338412 0 0 0 0,8.93384 v 179.76632 a 8.9338412,8.9338412 0 0 0 8.93384,8.93384 h 182.13208 a 8.9338412,8.9338412 0 0 0 8.93384,-8.93384 V 8.93384 A 8.9338412,8.9338412 0 0 0 191.06592,0 Z m -8.24902,121.02709 c -1.18288,1.8677 -3.05058,3.11284 -5.0428,3.61089 a 7.5330647,7.5330647 0 0 1 -6.69259,12.35796 6.7859839,6.7859839 0 0 0 -0.0623,-0.34241 6.536957,6.536957 0 0 1 -8.96497,7.28404 5.3229507,5.3229507 0 0 1 -0.80934,2.33462 c -0.84046,1.33852 -2.17898,2.17899 -3.57976,2.39689 a 11.081699,11.081699 0 0 1 0.18677,3.79766 11.112827,11.112827 0 0 1 -12.32683,9.74318 h 0.31128 a 9.1517398,9.1517398 0 0 1 0.46693,3.17509 9.1828682,9.1828682 0 0 1 -9.40077,8.93384 9.1517398,9.1517398 0 0 1 -3.92218,-0.9961 8.2801455,8.2801455 0 0 1 -14.13227,4.85602 7.5330647,7.5330647 0 0 1 -14.0389,0.62257 6.536957,6.536957 0 0 1 -10.61477,-4.10895 5.3229507,5.3229507 0 0 1 -2.42801,0.52919 c -2.70817,-0.0623 -4.91828,-2.17899 -5.16731,-4.8249 l 0.0311,-0.0623 a 11.05057,11.05057 0 0 1 -5.2607,4.35797 11.112827,11.112827 0 0 1 -14.31905,-5.88326 9.1517398,9.1517398 0 0 1 -2.55252,1.92996 9.1828682,9.1828682 0 0 1 -12.32684,-3.98443 9.1206114,9.1206114 0 0 1 -1.02723,-3.92217 8.2801455,8.2801455 0 0 1 -10.98831,-10.08559 7.5330647,7.5330647 0 0 1 -7.28404,-12.01555 6.536957,6.536957 0 0 1 -1.46304,-11.2996 5.3229507,5.3229507 0 0 1 -1.61867,-1.8677 5.3540791,5.3540791 0 0 1 0.0934,-5.07393 l 0.15565,0.0311 a 11.05057,11.05057 0 0 1 -4.14008,-1.99221 11.112827,11.112827 0 0 1 -2.17898,-15.37742 9.1517398,9.1517398 0 0 1 -2.92607,-1.214 9.1828682,9.1828682 0 0 1 -2.80155,-12.66925 9.1206114,9.1206114 0 0 1 2.89494,-2.83268 8.2801455,8.2801455 0 0 1 3.11283,-14.63033 7.5330647,7.5330647 0 0 1 6.72373,-12.32684 l 0.0311,0.34242 a 6.536957,6.536957 0 0 1 8.96497,-7.31517 5.3229507,5.3229507 0 0 1 0.80934,-2.33463 c 0.84046,-1.30739 2.17898,-2.14785 3.61089,-2.39688 a 11.081699,11.081699 0 0 1 -0.2179,-3.76653 11.112827,11.112827 0 0 1 12.04668,-9.77431 9.1517398,9.1517398 0 0 1 -0.49806,-3.14397 c 0.15564,-5.07392 4.35797,-9.08948 9.40077,-8.93384 a 9.1206114,9.1206114 0 0 1 3.92217,0.96498 8.2801455,8.2801455 0 0 1 14.13228,-4.82489 7.5330647,7.5330647 0 0 1 14.03889,-0.6537 6.536957,6.536957 0 0 1 10.61478,4.10894 5.3229507,5.3229507 0 0 1 2.42801,-0.49805 c 2.7393,0.0623 4.91828,2.17899 5.19844,4.79377 l -0.0623,0.0934 a 11.019442,11.019442 0 0 1 5.26069,-4.3891 c 5.60311,-2.27237 11.9533,0.37354 14.31905,5.91439 a 9.1517398,9.1517398 0 0 1 2.55253,-1.96108 9.1828682,9.1828682 0 0 1 12.35796,3.98443 9.1206114,9.1206114 0 0 1 0.99611,3.92217 8.2801455,8.2801455 0 0 1 11.01944,10.11672 7.5330647,7.5330647 0 0 1 7.28404,11.98442 6.536957,6.536957 0 0 1 1.46303,11.2996 5.3229507,5.3229507 0 0 1 1.58755,1.8677 5.3540791,5.3540791 0 0 1 -0.0934,5.10505 11.05057,11.05057 0 0 1 4.01556,1.96109 11.112827,11.112827 0 0 1 2.14786,15.34628 9.1517398,9.1517398 0 0 1 2.92607,1.24514 9.1828682,9.1828682 0 0 1 2.80155,12.63812 9.1206114,9.1206114 0 0 1 -2.86381,2.86381 8.2801455,8.2801455 0 0 1 1.89883,10.98831 z"
     id="path366"
     style="stroke-width:0.311284" />
  <path
     fill="#b1361e"
     d="m 95.43957,27.95327 a 7.5019364,7.5019364 0 0 1 -5.54084,2.24125 7.470808,7.470808 0 0 1 -4.85603,-1.92996 8.2801455,8.2801455 0 0 1 -8.21789,6.10116 8.2490172,8.2490172 0 0 1 -3.01945,-0.62257 9.1517398,9.1517398 0 0 1 -8.84046,8.71594 11.05057,11.05057 0 0 1 1.02724,6.13229 11.112827,11.112827 0 0 1 -6.0389,8.62256 c 1.6498,1.71206 2.61478,4.04669 2.55252,6.63034 a 9.2139965,9.2139965 0 0 1 -1.92996,5.41634 c 2.67704,1.49416 4.42023,4.35797 4.35797,7.62645 a 8.4669157,8.4669157 0 0 1 -0.59143,2.80155 7.6264498,7.6264498 0 0 1 6.84824,7.81322 7.6887066,7.6887066 0 0 1 -0.0934,1.15175 6.1634166,6.1634166 0 0 1 1.30739,-0.0934 c 2.86381,0.0623 5.22957,2.0856 5.85214,4.76264 a 5.5097209,5.5097209 0 0 1 3.17509,-0.93385 c 2.58365,0.0623 4.66925,1.8677 5.26069,4.26459 a 3.4863771,3.4863771 0 0 1 3.1751,-0.12451 11.268469,11.268469 0 0 1 2.52139,-5.2607 3.4863771,3.4863771 0 0 1 -0.9961,-1.18288 3.5175054,3.5175054 0 0 1 0.0311,-3.26848 5.5408493,5.5408493 0 0 1 -2.70816,-9.30738 6.1322882,6.1322882 0 0 1 -2.98833,-2.80155 6.1634166,6.1634166 0 0 1 3.20623,-8.52917 6.2256733,6.2256733 0 0 0 -0.49806,0.2179 7.6264498,7.6264498 0 0 1 -1.68093,-2.17899 7.6264498,7.6264498 0 0 1 5.19844,-10.95718 v -0.0311 a 8.4980441,8.4980441 0 0 1 3.64202,-11.42411 8.4357874,8.4357874 0 0 1 4.60699,-0.93385 9.2451249,9.2451249 0 0 1 4.98054,-8.7782 9.33851,9.33851 0 0 1 0.49806,-0.2179 5.3540791,5.3540791 0 0 1 -0.90273,-1.74319 6.536957,6.536957 0 0 1 -3.79766,1.08949 6.536957,6.536957 0 0 1 -5.50972,-3.29961 z m 66.83261,67.54856 a 11.112827,11.112827 0 0 1 -4.26459,-9.64979 c -2.3035,0.52918 -4.8249,0.18677 -6.97275,-1.21401 a 9.2139965,9.2139965 0 0 1 -3.67315,-4.45136 8.4980441,8.4980441 0 0 1 -8.74707,-0.2179 8.4669157,8.4669157 0 0 1 -2.14786,-1.96108 c -2.36575,3.17509 -6.81711,4.04668 -10.2101,1.8677 a 7.7198349,7.7198349 0 0 1 -0.93385,-0.68483 6.1634166,6.1634166 0 0 1 -0.56031,1.18288 6.1634166,6.1634166 0 0 1 -7.09727,2.5214 5.5097209,5.5097209 0 0 1 -0.8716,3.20622 c -1.36964,2.17899 -4.01556,3.05058 -6.35018,2.3035 a 3.4863771,3.4863771 0 0 1 -0.52919,1.77432 c -0.18677,0.28015 -0.40466,0.52918 -0.62256,0.71595 a 11.299597,11.299597 0 0 1 2.61478,4.70038 3.4863771,3.4863771 0 0 1 1.55642,-0.34241 3.5175054,3.5175054 0 0 1 2.86381,1.61868 5.5408493,5.5408493 0 0 1 9.46302,2.02334 6.1322882,6.1322882 0 0 1 3.89105,-1.27626 c 3.42412,0.0623 6.07003,2.89494 6.00777,6.28793 a 6.1634166,6.1634166 0 0 1 -0.0623,0.62257 l 0.0623,-0.59144 a 7.6264498,7.6264498 0 0 1 2.70817,-0.4358 7.6264498,7.6264498 0 0 1 7.47081,7.84435 7.6575782,7.6575782 0 0 1 -0.31129,1.96108 c 4.70039,0.12452 8.40466,4.01556 8.28015,8.71595 a 8.4357874,8.4357874 0 0 1 -1.40078,4.45135 9.2451249,9.2451249 0 0 1 5.38521,8.62256 9.2451249,9.2451249 0 0 1 -0.62257,3.01945 l 0.0311,-0.0622 0.84047,0.15564 a 6.536957,6.536957 0 0 1 1.02723,-3.82879 6.536957,6.536957 0 0 1 5.66537,-3.01945 7.5019364,7.5019364 0 0 1 0.93385,-5.91439 7.470808,7.470808 0 0 1 4.20233,-3.11284 8.2801455,8.2801455 0 0 1 -1.02724,-10.2101 8.2490172,8.2490172 0 0 1 2.14786,-2.24125 9.1517398,9.1517398 0 0 1 -2.92607,-12.10893 11.05057,11.05057 0 0 1 -5.78987,-2.27237 z"
     id="path368"
     style="stroke-width:0.311284" />
  <path
     fill="#b1361e"
     d="m 162.70797,70.47462 a 5.3540791,5.3540791 0 0 1 0.68483,-0.90272 6.536957,6.536957 0 0 1 -2.77043,-2.80155 6.536957,6.536957 0 0 1 0.24903,-6.41245 c -1.92996,-0.56031 -3.61089,-1.8677 -4.607,-3.79766 a 7.470808,7.470808 0 0 1 -0.62256,-5.19843 8.2801455,8.2801455 0 0 1 -9.30739,-4.26459 8.2801455,8.2801455 0 0 1 -0.87159,-2.98832 9.1517398,9.1517398 0 0 1 -11.89104,-3.57977 11.05057,11.05057 0 0 1 -4.88715,3.82879 11.112827,11.112827 0 0 1 -10.45913,-1.18288 v -0.0934 a 9.2451249,9.2451249 0 0 1 -4.607,5.50972 9.2139965,9.2139965 0 0 1 -5.69649,0.93385 8.4980441,8.4980441 0 0 1 -4.607,7.40855 8.4669157,8.4669157 0 0 1 -2.7393,0.8716 c 1.52529,3.64202 0,7.9066 -3.57976,9.74318 a 7.6887066,7.6887066 0 0 1 -1.05836,0.46692 6.1634166,6.1634166 0 0 1 0.71595,1.08949 c 1.30739,2.55253 0.6537,5.60311 -1.40078,7.40856 a 5.5097209,5.5097209 0 0 1 2.33463,2.36575 C 98.77031,81.15163 98.21,83.8598 96.3423,85.5096 a 3.4863771,3.4863771 0 0 1 1.27626,1.36965 c 0.15564,0.28016 0.24903,0.56031 0.31128,0.84047 a 11.299597,11.299597 0 0 1 5.60311,-0.12452 3.5175054,3.5175054 0 0 1 0.46693,-1.18287 3.5175054,3.5175054 0 0 1 2.83268,-1.61868 5.5408493,5.5408493 0 0 1 6.63034,-7.06614 6.1322882,6.1322882 0 0 1 0.93385,-3.98443 c 1.80544,-2.86381 5.60311,-3.70427 8.46692,-1.8677 a 7.6264498,7.6264498 0 0 1 1.05836,-2.55253 7.6264498,7.6264498 0 0 1 10.58364,-2.33462 7.6264498,7.6264498 0 0 1 1.49417,1.27626 8.4980441,8.4980441 0 0 1 11.73539,-2.61478 8.4357874,8.4357874 0 0 1 3.11284,3.5175 c 2.95719,-1.99221 6.94162,-2.17898 10.11672,-0.12451 a 9.2451249,9.2451249 0 0 1 1.74318,1.4319 z m -58.52132,41.08945 a 3.4863771,3.4863771 0 0 1 -0.40467,-1.99222 11.330725,11.330725 0 0 1 -2.80156,0.34241 c -0.93385,0 -1.83657,-0.0934 -2.67704,-0.31128 a 3.4863771,3.4863771 0 0 1 -0.49805,2.45914 3.5175054,3.5175054 0 0 1 -2.86381,1.61868 5.5408493,5.5408493 0 0 1 -6.59921,7.03501 6.1322882,6.1322882 0 0 1 -0.93385,3.98443 6.1634166,6.1634166 0 0 1 -8.49805,1.8677 7.6264498,7.6264498 0 0 1 -1.05836,2.55252 7.6264498,7.6264498 0 0 1 -10.55252,2.33463 7.6575782,7.6575782 0 0 1 -1.52529,-1.27626 v 0.0311 a 8.4980441,8.4980441 0 0 1 -11.73539,2.58365 8.4357874,8.4357874 0 0 1 -3.11284,-3.48637 c -2.95719,1.99221 -6.9105,2.17898 -10.11672,0.12451 a 9.2762533,9.2762533 0 0 1 -1.74319,-1.43191 5.4163358,5.4163358 0 0 1 -0.68482,0.8716 6.536957,6.536957 0 0 1 2.80155,2.80155 6.536957,6.536957 0 0 1 -0.28015,6.41244 c 1.92995,0.56032 3.64201,1.86771 4.60699,3.79767 a 7.470808,7.470808 0 0 1 0.62257,5.19843 8.2801455,8.2801455 0 0 1 9.33851,4.29572 8.2490172,8.2490172 0 0 1 0.84047,2.95719 9.1517398,9.1517398 0 0 1 11.92216,3.57976 11.05057,11.05057 0 0 1 4.88716,-3.82878 c 3.57976,-1.43191 7.4708,-0.8716 10.45913,1.18287 a 9.2139965,9.2139965 0 0 1 4.57587,-5.41633 9.2139965,9.2139965 0 0 1 5.69649,-0.90273 c 0.0311,-3.01945 1.71206,-5.94551 4.607,-7.43968 a 8.4980441,8.4980441 0 0 1 2.77042,-0.87159 c -1.55642,-3.64202 0,-7.9066 3.54863,-9.74318 a 7.6575782,7.6575782 0 0 1 1.0895,-0.4358 6.1322882,6.1322882 0 0 1 -0.74708,-1.12062 c -1.3074,-2.55252 -0.62257,-5.57197 1.40077,-7.37742 a 5.5097209,5.5097209 0 0 1 -2.33462,-2.36576 c -1.15175,-2.30349 -0.59144,-5.01166 1.24513,-6.66147 a 3.4863771,3.4863771 0 0 1 -1.24513,-1.36964 z"
     id="path370"
     style="stroke-width:0.311284" />
  <path
     fill="#b1361e"
     d="m 90.39678,102.56797 a 3.4863771,3.4863771 0 0 1 -2.0856,0.62257 3.5175054,3.5175054 0 0 1 -2.86381,-1.58755 5.5408493,5.5408493 0 0 1 -9.4319,-2.02335 6.1322882,6.1322882 0 0 1 -3.92217,1.24514 c -3.39299,-0.0623 -6.07003,-2.89494 -5.97665,-6.28793 a 7.6264498,7.6264498 0 0 1 -2.73929,0.40467 7.6264498,7.6264498 0 0 1 -7.1284,-9.80544 h -0.0311 c -4.66925,-0.0934 -8.40466,-3.98443 -8.28014,-8.68481 a 8.4357874,8.4357874 0 0 1 1.40077,-4.45136 9.2451249,9.2451249 0 0 1 -5.32295,-8.62256 9.2451249,9.2451249 0 0 1 0.56031,-2.98832 5.4163358,5.4163358 0 0 1 -0.84046,-0.15564 6.536957,6.536957 0 0 1 -1.02724,3.82879 6.536957,6.536957 0 0 1 -5.66536,3.01945 c 0.49805,1.96109 0.2179,4.07782 -0.93385,5.91439 a 7.470808,7.470808 0 0 1 -4.1712,3.14396 c 2.58365,2.70817 3.11283,6.9105 0.9961,10.21011 a 8.2490172,8.2490172 0 0 1 -2.11672,2.24124 9.1517398,9.1517398 0 0 1 2.92606,12.07781 11.05057,11.05057 0 0 1 5.75875,2.3035 11.112827,11.112827 0 0 1 4.26459,9.61866 c 2.33462,-0.52918 4.82489,-0.15564 7.00388,1.24514 a 9.2139965,9.2139965 0 0 1 3.64202,4.42022 8.4980441,8.4980441 0 0 1 8.74707,0.24903 8.4669157,8.4669157 0 0 1 2.14786,1.92996 c 2.36575,-3.17509 6.84824,-4.04669 10.2101,-1.8677 a 7.6575782,7.6575782 0 0 1 0.93385,0.71595 6.1634166,6.1634166 0 0 1 0.59144,-1.18288 c 1.55642,-2.42801 4.48248,-3.39299 7.09727,-2.55252 a 5.5097209,5.5097209 0 0 1 0.84046,-3.1751 c 1.40078,-2.17898 4.04669,-3.01945 6.35019,-2.27237 a 3.4863771,3.4863771 0 0 1 2.05447,-3.11283 11.330725,11.330725 0 0 1 -2.98832,-4.35798 z"
     id="path372"
     style="stroke-width:0.311284" />
</svg>
